<svg width="81" height="12" viewBox="0 0 81 12" fill="none" xmlns="http://www.w3.org/2000/svg">
<path d="M3.23864 6.22727H4.26136L4.17614 3.88352L6.15767 5.14062L6.66903 4.24574L4.58097 3.15909L6.66903 2.07244L6.15767 1.17756L4.17614 2.43466L4.26136 0.0909088H3.23864L3.32386 2.43466L1.34233 1.17756L0.830966 2.07244L2.91903 3.15909L0.830966 4.24574L1.34233 5.14062L3.32386 3.88352L3.23864 6.22727ZM8.22443 1.26278H11.6548V11H12.9759V1.26278H16.4062V0.0909088H8.22443V1.26278ZM20.5185 11.1705C22.1804 11.1705 23.3949 10.3395 23.7784 9.10369L22.5639 8.76278C22.2443 9.61506 21.5039 10.0412 20.5185 10.0412C19.043 10.0412 18.0256 9.08771 17.967 7.33523H23.9062V6.80256C23.9062 3.75568 22.0952 2.71165 20.3906 2.71165C18.1747 2.71165 16.7045 4.45881 16.7045 6.97301C16.7045 9.48722 18.1534 11.1705 20.5185 11.1705ZM17.967 6.24858C18.0522 4.9755 18.9524 3.84091 20.3906 3.84091C21.7543 3.84091 22.6278 4.86364 22.6278 6.24858H17.967ZM28.2262 11.1918C29.6538 11.1918 30.3995 10.4247 30.6552 9.89205H30.7191V11H31.9762V5.60938C31.9762 3.00994 29.9947 2.71165 28.9506 2.71165C27.7148 2.71165 26.3086 3.13778 25.6694 4.62926L26.8626 5.0554C27.1396 4.45881 27.7947 3.8196 28.9933 3.8196C30.1491 3.8196 30.7191 4.43217 30.7191 5.48153V5.52415C30.7191 6.13139 30.1012 6.07812 28.6097 6.26989C27.0916 6.46697 25.435 6.80256 25.435 8.67756C25.435 10.2756 26.6708 11.1918 28.2262 11.1918ZM28.418 10.0625C27.4165 10.0625 26.6921 9.61506 26.6921 8.74148C26.6921 7.78267 27.5657 7.48438 28.5458 7.35653C29.0785 7.29261 30.506 7.14347 30.7191 6.88778V8.03835C30.7191 9.06108 29.9094 10.0625 28.418 10.0625ZM34.2707 11H35.5278V5.88636C35.5278 4.68785 36.4014 3.84091 37.3815 3.84091C38.335 3.84091 39.0008 4.46413 39.0008 5.39631V11H40.2792V5.6733C40.2792 4.61861 40.9397 3.84091 42.0903 3.84091C42.9852 3.84091 43.7522 4.31499 43.7522 5.52415V11H45.0093V5.52415C45.0093 3.60121 43.9759 2.71165 42.5164 2.71165C41.3445 2.71165 40.4869 3.24964 40.0661 4.09659H39.9809C39.5761 3.22301 38.8623 2.71165 37.7863 2.71165C36.721 2.71165 35.9326 3.22301 35.5917 4.09659H35.4852V2.81818H34.2707V11ZM49.1615 11H50.3973L52.1871 4.71449H52.3149L54.1047 11H55.3405L57.8334 2.81818H56.5123L54.7439 9.06108H54.6586L52.9328 2.81818H51.5905L49.8433 9.08239H49.7581L47.9896 2.81818H46.6686L49.1615 11ZM62.5408 11.1705C64.7567 11.1705 66.2482 9.48722 66.2482 6.9517C66.2482 4.39489 64.7567 2.71165 62.5408 2.71165C60.3249 2.71165 58.8335 4.39489 58.8335 6.9517C58.8335 9.48722 60.3249 11.1705 62.5408 11.1705ZM62.5408 10.0412C60.8576 10.0412 60.0906 8.59233 60.0906 6.9517C60.0906 5.31108 60.8576 3.84091 62.5408 3.84091C64.2241 3.84091 64.9911 5.31108 64.9911 6.9517C64.9911 8.59233 64.2241 10.0412 62.5408 10.0412ZM68.1672 11H69.4243V5.82244C69.4243 4.71449 70.2979 3.90483 71.491 3.90483C71.8266 3.90483 72.1729 3.96875 72.2581 3.99006V2.71165C72.1143 2.70099 71.784 2.69034 71.5976 2.69034C70.6175 2.69034 69.7652 3.24432 69.4669 4.05398H69.3817V2.81818H68.1672V11ZM73.7482 11H75.0053V7.93714L75.8842 7.12216L78.9471 11H80.5451L76.8324 6.3125L80.2894 2.81818H78.734L75.1545 6.46165H75.0053V0.0909088H73.7482V11Z" fill="#CFCFCF"/>
</svg>
