<svg id="visual" viewBox="0 0 960 540" width="960" height="540" xmlns="http://www.w3.org/2000/svg" xmlns:xlink="http://www.w3.org/1999/xlink" version="1.1"><rect width="960" height="540" fill="#FFFFFF"></rect><g><g transform="translate(477 211)"><path d="M69.3 -53C87.3 -32.7 97.7 -4 92 21C86.3 46.1 64.6 67.5 38.3 80.6C11.9 93.8 -19 98.6 -46 88.4C-73.1 78.1 -96.4 52.7 -104.2 22.6C-112.1 -7.6 -104.5 -42.4 -84.6 -63.2C-64.6 -84 -32.3 -90.6 -3.3 -88C25.6 -85.3 51.3 -73.3 69.3 -53Z" stroke="#FE1111" fill="none" stroke-width="20"></path></g><g transform="translate(108 43)"><path d="M51.7 -39.7C63.6 -26.4 67.3 -5.1 61.7 12C56.1 29 41.2 41.8 24.4 49.5C7.6 57.1 -11.2 59.7 -25.2 52.8C-39.3 45.9 -48.7 29.6 -51.6 12.9C-54.5 -3.7 -50.9 -20.7 -41.2 -33.6C-31.5 -46.4 -15.8 -55 2.1 -56.7C20 -58.3 39.9 -53 51.7 -39.7Z" stroke="#FE1111" fill="none" stroke-width="20"></path></g><g transform="translate(954 165)"><path d="M57.4 -48.8C71 -28.7 76.4 -5 72.4 18.2C68.5 41.4 55.2 64.2 34.2 76.4C13.2 88.6 -15.5 90.3 -36.2 78.9C-56.8 67.5 -69.4 43.1 -73.1 19C-76.7 -5.2 -71.5 -29 -57.8 -49.1C-44.2 -69.3 -22.1 -85.7 -0.1 -85.6C21.9 -85.5 43.8 -68.9 57.4 -48.8Z" stroke="#FE1111" fill="none" stroke-width="20"></path></g><g transform="translate(90 380)"><path d="M39.4 -33.8C48.8 -19.6 52.7 -3.4 49.9 12.4C47.1 28.2 37.7 43.4 23.7 50.8C9.7 58.2 -8.9 57.6 -22.9 50C-37 42.3 -46.4 27.5 -49.9 11.6C-53.4 -4.3 -50.8 -21.4 -41.5 -35.5C-32.1 -49.6 -16.1 -60.8 -0.5 -60.3C15 -59.9 30 -47.9 39.4 -33.8Z" stroke="#FE1111" fill="none" stroke-width="20"></path></g><g transform="translate(563 507)"><path d="M64.8 -55.5C79.6 -33.1 84.2 -6.4 80.2 21.1C76.1 48.6 63.4 77 41.4 88.6C19.3 100.3 -12 95.2 -35.2 81C-58.4 66.8 -73.4 43.5 -79.2 18C-85.1 -7.4 -81.9 -35.1 -67.1 -57.5C-52.4 -79.9 -26.2 -97.2 -0.6 -96.7C25 -96.2 49.9 -78 64.8 -55.5Z" stroke="#FE1111" fill="none" stroke-width="20"></path></g><g transform="translate(680 23)"><path d="M53.2 -40.7C68 -23.8 78.5 -1.7 74.6 17.6C70.6 37 52.2 53.6 30.7 64.2C9.1 74.7 -15.6 79.2 -34 70.4C-52.3 61.6 -64.3 39.5 -67.8 17.4C-71.3 -4.7 -66.3 -26.8 -53.6 -43.2C-40.8 -59.7 -20.4 -70.5 -0.6 -70C19.2 -69.5 38.3 -57.7 53.2 -40.7Z" stroke="#FE1111" fill="none" stroke-width="20"></path></g></g></svg>