<svg id="visual" viewBox="0 0 960 540" width="960" height="540" xmlns="http://www.w3.org/2000/svg" xmlns:xlink="http://www.w3.org/1999/xlink" version="1.1"><rect width="960" height="540" fill="#FFFFFF"></rect><g><g transform="translate(199 111)"><path d="M83.4 -29.1C94.9 8.3 81.9 51.6 51.6 74.4C21.3 97.2 -26.3 99.5 -56.9 77.5C-87.4 55.4 -100.9 9.1 -88.6 -29.4C-76.3 -67.9 -38.1 -98.6 -1.1 -98.2C35.9 -97.9 71.9 -66.5 83.4 -29.1Z" stroke="#FE1111" fill="none" stroke-width="20"></path></g><g transform="translate(748 403)"><path d="M44.4 -14.5C51 5.7 45.1 29.8 29.6 41.2C14.2 52.5 -10.9 51 -29.5 38.1C-48 25.2 -60 0.9 -54 -18.5C-48 -37.9 -24 -52.4 -2.5 -51.6C18.9 -50.7 37.9 -34.6 44.4 -14.5Z" stroke="#FE1111" fill="none" stroke-width="20"></path></g><g transform="translate(187 423)"><path d="M55.6 -18.6C62.7 3.5 52.4 30.8 32.2 45.8C12 60.8 -18.1 63.5 -37.2 49.9C-56.4 36.3 -64.5 6.3 -56.5 -17.2C-48.5 -40.7 -24.2 -57.8 0 -57.8C24.3 -57.8 48.6 -40.8 55.6 -18.6Z" stroke="#FE1111" fill="none" stroke-width="20"></path></g></g></svg>