<svg width="101" height="27" viewBox="0 0 101 27" fill="none" xmlns="http://www.w3.org/2000/svg">
<path d="M16.9176 7.65625C16.4318 3.625 13.3807 1.30682 9.34091 1.30682C4.73011 1.30682 1.21023 4.5625 1.21023 10.2727C1.21023 15.9659 4.67045 19.2386 9.34091 19.2386C13.8153 19.2386 16.517 16.2642 16.9176 13.0511L13.1847 13.0341C12.8352 14.9006 11.3693 15.9744 9.40057 15.9744C6.75 15.9744 4.9517 14.0057 4.9517 10.2727C4.9517 6.64204 6.72443 4.57102 9.42614 4.57102C11.446 4.57102 12.9034 5.73864 13.1847 7.65625H16.9176ZM23.1264 1.54545H19.4957V19H23.1264V1.54545ZM26.0348 19H29.6655V5.90909H26.0348V19ZM27.8587 4.22159C28.9411 4.22159 29.8274 3.39489 29.8274 2.38068C29.8274 1.375 28.9411 0.548295 27.8587 0.548295C26.7848 0.548295 25.8984 1.375 25.8984 2.38068C25.8984 3.39489 26.7848 4.22159 27.8587 4.22159ZM38.4886 19.2557C41.9744 19.2557 44.1648 17.2102 44.3352 14.2017H40.9091C40.696 15.5994 39.7756 16.3835 38.5312 16.3835C36.8352 16.3835 35.7358 14.9602 35.7358 12.4545C35.7358 9.98295 36.8438 8.56818 38.5312 8.56818C39.8608 8.56818 40.7131 9.44602 40.9091 10.75H44.3352C44.1818 7.72443 41.8892 5.73864 38.4716 5.73864C34.5 5.73864 32.0455 8.49148 32.0455 12.5057C32.0455 16.4858 34.4574 19.2557 38.4886 19.2557ZM46.6598 19H50.2905V14.8409L51.2706 13.7244L54.8416 19H59.0945L53.9893 11.5767L58.8473 5.90909H54.6797L50.4865 10.8778H50.2905V1.54545H46.6598V19ZM66.1832 19H69.8139V11.142C69.8139 9.69318 70.7344 8.73011 71.9446 8.73011C73.1378 8.73011 73.9389 9.5483 73.9389 10.8352V19H77.4588V11.0057C77.4588 9.65057 78.2344 8.73011 79.5554 8.73011C80.7145 8.73011 81.5838 9.45455 81.5838 10.9119V19H85.206V10.196C85.206 7.35795 83.5185 5.73864 81.081 5.73864C79.1634 5.73864 77.6719 6.71875 77.1349 8.21875H76.9986C76.581 6.7017 75.2429 5.73864 73.4446 5.73864C71.6804 5.73864 70.3423 6.67614 69.7969 8.21875H69.6435V5.90909H66.1832V19ZM94.0398 19.2557C97.2784 19.2557 99.4602 17.679 99.9716 15.25L96.6136 15.0284C96.2472 16.0256 95.3097 16.5455 94.0994 16.5455C92.2841 16.5455 91.1335 15.3438 91.1335 13.392V13.3835H100.048V12.3864C100.048 7.9375 97.3551 5.73864 93.8949 5.73864C90.0426 5.73864 87.5455 8.47443 87.5455 12.5142C87.5455 16.6648 90.0085 19.2557 94.0398 19.2557ZM91.1335 11.1335C91.2102 9.64205 92.3438 8.44886 93.9545 8.44886C95.5312 8.44886 96.6222 9.57386 96.6307 11.1335H91.1335Z" fill="black"/>
<path d="M0 23.8494H100.969V26.142H0V23.8494Z" fill="black"/>
</svg>
