<svg width="100" height="25" viewBox="0 0 100 25" fill="none" xmlns="http://www.w3.org/2000/svg">
<path d="M7.125 23.1818C10.2614 23.1818 12.7841 21.75 12.7841 18.375V4.90909H10.8409V6.98864H10.6364C10.1932 6.30682 9.375 4.73864 6.81818 4.73864C3.51136 4.73864 1.22727 7.36364 1.22727 11.3864C1.22727 15.4773 3.61364 17.7955 6.78409 17.7955C9.34091 17.7955 10.1591 16.2955 10.6023 15.5795H10.7727V18.2386C10.7727 20.4205 9.23864 21.4091 7.125 21.4091C4.74716 21.4091 3.91193 20.1562 3.375 19.4318L1.77273 20.5568C2.59091 21.929 4.2017 23.1818 7.125 23.1818ZM7.05682 15.9886C4.53409 15.9886 3.23864 14.0795 3.23864 11.3523C3.23864 8.69318 4.5 6.54545 7.05682 6.54545C9.51136 6.54545 10.8068 8.52273 10.8068 11.3523C10.8068 14.25 9.47727 15.9886 7.05682 15.9886ZM21.7841 18.2727C25.3295 18.2727 27.7159 15.5795 27.7159 11.5227C27.7159 7.43182 25.3295 4.73864 21.7841 4.73864C18.2386 4.73864 15.8523 7.43182 15.8523 11.5227C15.8523 15.5795 18.2386 18.2727 21.7841 18.2727ZM21.7841 16.4659C19.0909 16.4659 17.8636 14.1477 17.8636 11.5227C17.8636 8.89773 19.0909 6.54545 21.7841 6.54545C24.4773 6.54545 25.7045 8.89773 25.7045 11.5227C25.7045 14.1477 24.4773 16.4659 21.7841 16.4659ZM39.5476 10.125C39.5476 7.84091 41.005 6.54545 42.9908 6.54545C44.8828 6.54545 46.0249 7.73864 46.0249 9.81818V18H48.0362V9.68182C48.0362 6.31534 46.2464 4.73864 43.5703 4.73864C41.5078 4.73864 40.3317 5.59943 39.718 6.95455H39.5476V0.545454H37.5362V18H39.5476V10.125ZM57.0341 18.2727C60.5795 18.2727 62.9659 15.5795 62.9659 11.5227C62.9659 7.43182 60.5795 4.73864 57.0341 4.73864C53.4886 4.73864 51.1023 7.43182 51.1023 11.5227C51.1023 15.5795 53.4886 18.2727 57.0341 18.2727ZM57.0341 16.4659C54.3409 16.4659 53.1136 14.1477 53.1136 11.5227C53.1136 8.89773 54.3409 6.54545 57.0341 6.54545C59.7273 6.54545 60.9545 8.89773 60.9545 11.5227C60.9545 14.1477 59.7273 16.4659 57.0341 16.4659ZM66.0362 18H68.0476V9.81818C68.0476 7.90057 69.4453 6.54545 71.0135 6.54545C72.5391 6.54545 73.6044 7.54261 73.6044 9.03409V18H75.6499V9.47727C75.6499 7.78977 76.7067 6.54545 78.5476 6.54545C79.9794 6.54545 81.2067 7.30398 81.2067 9.23864V18H83.218V9.23864C83.218 6.16193 81.5646 4.73864 79.2294 4.73864C77.3544 4.73864 75.9822 5.59943 75.3089 6.95455H75.1726C74.5249 5.55682 73.3828 4.73864 71.6612 4.73864C69.9567 4.73864 68.6953 5.55682 68.1499 6.95455H67.9794V4.90909H66.0362V18ZM92.3842 18.2727C95.0433 18.2727 96.9865 16.9432 97.6001 14.9659L95.657 14.4205C95.1456 15.7841 93.9609 16.4659 92.3842 16.4659C90.0234 16.4659 88.3956 14.9403 88.3018 12.1364H97.8047V11.2841C97.8047 6.40909 94.907 4.73864 92.1797 4.73864C88.6342 4.73864 86.282 7.53409 86.282 11.5568C86.282 15.5795 88.6001 18.2727 92.3842 18.2727ZM88.3018 10.3977C88.4382 8.3608 89.8786 6.54545 92.1797 6.54545C94.3615 6.54545 95.7592 8.18182 95.7592 10.3977H88.3018Z" fill="#FE1111"/>
<path d="M0 22.7727H99.032V24.4091H0V22.7727Z" fill="#FE1111"/>
</svg>
