<svg width="153" height="148" viewBox="0 0 153 148" fill="none" xmlns="http://www.w3.org/2000/svg">
<path d="M76.5 0.999875C34.7685 0.999873 1.00007 33.6308 1.00006 73.8083C1.00006 113.986 34.7685 146.617 76.5 146.617C118.232 146.617 152 113.986 152 73.8083C152 33.6308 118.232 0.999876 76.5 0.999875Z" stroke="#C4C7CF" stroke-width="2"/>
<ellipse rx="5.63814" ry="13.8125" transform="matrix(4.37114e-08 -1 -1 -4.37114e-08 95.6249 94.8238)" fill="#C4C7CF"/>
<ellipse rx="5.63814" ry="13.8125" transform="matrix(4.37114e-08 -1 -1 -4.37114e-08 95.6252 52.7942)" fill="#C4C7CF"/>
<path d="M74.375 28.7031C48.5557 28.7031 27.6251 48.8973 27.6251 73.8082C27.6251 98.7191 48.5557 118.913 74.375 118.913" stroke="black" stroke-width="7"/>
</svg>
