<svg width="33" height="32" viewBox="0 0 33 32" fill="none" xmlns="http://www.w3.org/2000/svg">
<path d="M16.5 0.999885C7.91036 0.999884 1 7.74442 1 15.9999C1 24.2555 7.91036 31 16.5 31C25.0896 31 32 24.2555 32 15.9999C32 7.74442 25.0896 0.999885 16.5 0.999885Z" stroke="#FE1111" stroke-width="2"/>
<ellipse rx="1.22223" ry="2.97917" transform="matrix(4.37114e-08 -1 -1 -4.37114e-08 20.6247 20.5556)" fill="#FE1111"/>
<ellipse rx="1.22223" ry="2.97917" transform="matrix(4.37114e-08 -1 -1 -4.37114e-08 20.625 11.4445)" fill="#FE1111"/>
<path d="M16.0418 6.22221C10.4729 6.22221 5.95845 10.5999 5.95845 16C5.95845 21.4002 10.4729 25.7778 16.0418 25.7778" stroke="#FE1111" stroke-width="2"/>
</svg>
