<svg width="66" height="26" viewBox="0 0 66 26" fill="none" xmlns="http://www.w3.org/2000/svg">
<path d="M5.07955 10.4318C5.08807 8.74432 6.11932 7.75568 7.60227 7.75568C9.0767 7.75568 9.94602 8.7017 9.9375 10.3125V18H13.5682V9.66477C13.5767 6.59659 11.7699 4.73864 9.04261 4.73864C7.05682 4.73864 5.72727 5.67614 5.13068 7.21875H4.97727V0.545454H1.44886V18H5.07955V10.4318ZM22.3402 18.2557C26.3118 18.2557 28.7834 15.5369 28.7834 11.5057C28.7834 7.44886 26.3118 4.73864 22.3402 4.73864C18.3686 4.73864 15.897 7.44886 15.897 11.5057C15.897 15.5369 18.3686 18.2557 22.3402 18.2557ZM22.3572 15.4432C20.5249 15.4432 19.5874 13.7642 19.5874 11.4801C19.5874 9.19602 20.5249 7.50852 22.3572 7.50852C24.1555 7.50852 25.093 9.19602 25.093 11.4801C25.093 13.7642 24.1555 15.4432 22.3572 15.4432ZM31.1442 18H34.7749V10.142C34.7749 8.69318 35.6953 7.73011 36.9055 7.73011C38.0987 7.73011 38.8999 8.5483 38.8999 9.83523V18H42.4197V10.0057C42.4197 8.65057 43.1953 7.73011 44.5163 7.73011C45.6754 7.73011 46.5447 8.45455 46.5447 9.91193V18H50.1669V9.19602C50.1669 6.35795 48.4794 4.73864 46.0419 4.73864C44.1243 4.73864 42.6328 5.71875 42.0959 7.21875H41.9595C41.5419 5.7017 40.2038 4.73864 38.4055 4.73864C36.6413 4.73864 35.3033 5.67614 34.7578 7.21875H34.6044V4.90909H31.1442V18ZM59.0007 18.2557C62.2393 18.2557 64.4212 16.679 64.9325 14.25L61.5746 14.0284C61.2081 15.0256 60.2706 15.5455 59.0604 15.5455C57.245 15.5455 56.0945 14.3438 56.0945 12.392V12.3835H65.0092V11.3864C65.0092 6.9375 62.3161 4.73864 58.8558 4.73864C55.0036 4.73864 52.5064 7.47443 52.5064 11.5142C52.5064 15.6648 54.9695 18.2557 59.0007 18.2557ZM56.0945 10.1335C56.1712 8.64205 57.3047 7.44886 58.9155 7.44886C60.4922 7.44886 61.5831 8.57386 61.5916 10.1335H56.0945Z" fill="black"/>
<path d="M0 22.8494H65.9297V25.142H0V22.8494Z" fill="black"/>
</svg>
