<svg width="81" height="95" viewBox="0 0 81 95" fill="none" xmlns="http://www.w3.org/2000/svg">
<path d="M42.2164 9.504V5.808H38.4484V9.504H42.2164ZM38.4484 14.304V18H42.2164V14.304H38.4484ZM45.3201 0.863999V18H48.8481V5.976H48.8961L53.0961 18H56.0001L60.2001 5.856H60.2481V18H63.7761V0.863999H58.4721L54.6801 12.648H54.6321L50.6241 0.863999H45.3201ZM67.0935 0.863999V18H80.1015V14.832H70.8615V10.632H79.1655V7.704H70.8615V4.032H79.9095V0.863999H67.0935ZM37.1179 39.36V36.864H35.0779V39.36H37.1179ZM35.0779 41.592V54H37.1179V41.592H35.0779ZM40.2782 41.592V54H42.3182V46.992C42.3182 46.432 42.3902 45.92 42.5342 45.456C42.6942 44.976 42.9262 44.56 43.2302 44.208C43.5342 43.856 43.9102 43.584 44.3582 43.392C44.8222 43.2 45.3662 43.104 45.9902 43.104C46.7742 43.104 47.3902 43.328 47.8382 43.776C48.2862 44.224 48.5102 44.832 48.5102 45.6V54H50.5502V45.84C50.5502 45.168 50.4782 44.56 50.3342 44.016C50.2062 43.456 49.9742 42.976 49.6382 42.576C49.3022 42.176 48.8622 41.864 48.3182 41.64C47.7742 41.416 47.0942 41.304 46.2782 41.304C44.4382 41.304 43.0942 42.056 42.2462 43.56H42.1982V41.592H40.2782ZM56.4461 41.592V37.872H54.4061V41.592H52.2941V43.392H54.4061V51.288C54.4061 51.864 54.4621 52.328 54.5741 52.68C54.6861 53.032 54.8541 53.304 55.0781 53.496C55.3181 53.688 55.6221 53.824 55.9901 53.904C56.3741 53.968 56.8301 54 57.3581 54H58.9181V52.2H57.9821C57.6621 52.2 57.3981 52.192 57.1901 52.176C56.9981 52.144 56.8461 52.088 56.7341 52.008C56.6221 51.928 56.5421 51.816 56.4941 51.672C56.4621 51.528 56.4461 51.336 56.4461 51.096V43.392H58.9181V41.592H56.4461ZM61.1124 41.592V54H63.1524V48.48C63.1524 47.68 63.2324 46.976 63.3924 46.368C63.5524 45.744 63.8084 45.216 64.1604 44.784C64.5124 44.352 64.9764 44.024 65.5524 43.8C66.1284 43.576 66.8244 43.464 67.6404 43.464V41.304C66.5364 41.272 65.6244 41.496 64.9044 41.976C64.1844 42.456 63.5764 43.2 63.0804 44.208H63.0324V41.592H61.1124ZM70.2428 47.808C70.2428 47.056 70.3388 46.392 70.5308 45.816C70.7388 45.224 71.0188 44.728 71.3708 44.328C71.7228 43.928 72.1308 43.624 72.5948 43.416C73.0748 43.208 73.5788 43.104 74.1068 43.104C74.6348 43.104 75.1308 43.208 75.5948 43.416C76.0748 43.624 76.4908 43.928 76.8428 44.328C77.1948 44.728 77.4668 45.224 77.6588 45.816C77.8668 46.392 77.9708 47.056 77.9708 47.808C77.9708 48.56 77.8668 49.232 77.6588 49.824C77.4668 50.4 77.1948 50.888 76.8428 51.288C76.4908 51.672 76.0748 51.968 75.5948 52.176C75.1308 52.384 74.6348 52.488 74.1068 52.488C73.5788 52.488 73.0748 52.384 72.5948 52.176C72.1308 51.968 71.7228 51.672 71.3708 51.288C71.0188 50.888 70.7388 50.4 70.5308 49.824C70.3388 49.232 70.2428 48.56 70.2428 47.808ZM68.0828 47.808C68.0828 48.72 68.2108 49.568 68.4668 50.352C68.7228 51.136 69.1068 51.824 69.6188 52.416C70.1308 52.992 70.7628 53.448 71.5148 53.784C72.2668 54.104 73.1308 54.264 74.1068 54.264C75.0988 54.264 75.9628 54.104 76.6988 53.784C77.4508 53.448 78.0828 52.992 78.5948 52.416C79.1068 51.824 79.4908 51.136 79.7468 50.352C80.0028 49.568 80.1308 48.72 80.1308 47.808C80.1308 46.896 80.0028 46.048 79.7468 45.264C79.4908 44.464 79.1068 43.776 78.5948 43.2C78.0828 42.608 77.4508 42.144 76.6988 41.808C75.9628 41.472 75.0988 41.304 74.1068 41.304C73.1308 41.304 72.2668 41.472 71.5148 41.808C70.7628 42.144 70.1308 42.608 69.6188 43.2C69.1068 43.776 68.7228 44.464 68.4668 45.264C68.2108 46.048 68.0828 46.896 68.0828 47.808ZM10.0303 81.576H12.1423C12.0623 80.84 11.8703 80.208 11.5663 79.68C11.2623 79.136 10.8703 78.688 10.3903 78.336C9.92631 77.984 9.38231 77.728 8.75831 77.568C8.15031 77.392 7.49431 77.304 6.79031 77.304C5.81431 77.304 4.95831 77.48 4.22231 77.832C3.48631 78.168 2.87031 78.64 2.37431 79.248C1.89431 79.84 1.53431 80.544 1.29431 81.36C1.05431 82.16 0.934313 83.024 0.934313 83.952C0.934313 84.88 1.05431 85.736 1.29431 86.52C1.55031 87.288 1.91831 87.952 2.39831 88.512C2.89431 89.072 3.50231 89.504 4.22231 89.808C4.95831 90.112 5.79831 90.264 6.74231 90.264C8.32631 90.264 9.57431 89.848 10.4863 89.016C11.4143 88.184 11.9903 87 12.2143 85.464H10.1263C9.99831 86.424 9.64631 87.168 9.07031 87.696C8.51031 88.224 7.72631 88.488 6.71831 88.488C6.07831 88.488 5.52631 88.36 5.06231 88.104C4.59831 87.848 4.22231 87.512 3.93431 87.096C3.64631 86.664 3.43031 86.176 3.28631 85.632C3.15831 85.088 3.09431 84.528 3.09431 83.952C3.09431 83.328 3.15831 82.728 3.28631 82.152C3.41431 81.56 3.62231 81.04 3.91031 80.592C4.21431 80.144 4.61431 79.784 5.11031 79.512C5.60631 79.24 6.22231 79.104 6.95831 79.104C7.82231 79.104 8.51031 79.32 9.02231 79.752C9.53431 80.184 9.87031 80.792 10.0303 81.576ZM15.9849 83.808C15.9849 83.056 16.0809 82.392 16.2729 81.816C16.4809 81.224 16.7609 80.728 17.1129 80.328C17.4649 79.928 17.8729 79.624 18.3369 79.416C18.8169 79.208 19.3209 79.104 19.8489 79.104C20.3769 79.104 20.8729 79.208 21.3369 79.416C21.8169 79.624 22.2329 79.928 22.5849 80.328C22.9369 80.728 23.2089 81.224 23.4009 81.816C23.6089 82.392 23.7129 83.056 23.7129 83.808C23.7129 84.56 23.6089 85.232 23.4009 85.824C23.2089 86.4 22.9369 86.888 22.5849 87.288C22.2329 87.672 21.8169 87.968 21.3369 88.176C20.8729 88.384 20.3769 88.488 19.8489 88.488C19.3209 88.488 18.8169 88.384 18.3369 88.176C17.8729 87.968 17.4649 87.672 17.1129 87.288C16.7609 86.888 16.4809 86.4 16.2729 85.824C16.0809 85.232 15.9849 84.56 15.9849 83.808ZM13.8249 83.808C13.8249 84.72 13.9529 85.568 14.2089 86.352C14.4649 87.136 14.8489 87.824 15.3609 88.416C15.8729 88.992 16.5049 89.448 17.2569 89.784C18.0089 90.104 18.8729 90.264 19.8489 90.264C20.8409 90.264 21.7049 90.104 22.4409 89.784C23.1929 89.448 23.8249 88.992 24.3369 88.416C24.8489 87.824 25.2329 87.136 25.4889 86.352C25.7449 85.568 25.8729 84.72 25.8729 83.808C25.8729 82.896 25.7449 82.048 25.4889 81.264C25.2329 80.464 24.8489 79.776 24.3369 79.2C23.8249 78.608 23.1929 78.144 22.4409 77.808C21.7049 77.472 20.8409 77.304 19.8489 77.304C18.8729 77.304 18.0089 77.472 17.2569 77.808C16.5049 78.144 15.8729 78.608 15.3609 79.2C14.8489 79.776 14.4649 80.464 14.2089 81.264C13.9529 82.048 13.8249 82.896 13.8249 83.808ZM28.2782 77.592V90H30.3182V82.992C30.3182 82.432 30.3902 81.92 30.5342 81.456C30.6942 80.976 30.9262 80.56 31.2302 80.208C31.5342 79.856 31.9102 79.584 32.3582 79.392C32.8222 79.2 33.3662 79.104 33.9902 79.104C34.7742 79.104 35.3902 79.328 35.8382 79.776C36.2862 80.224 36.5102 80.832 36.5102 81.6V90H38.5502V81.84C38.5502 81.168 38.4782 80.56 38.3342 80.016C38.2062 79.456 37.9742 78.976 37.6382 78.576C37.3022 78.176 36.8622 77.864 36.3182 77.64C35.7742 77.416 35.0942 77.304 34.2782 77.304C32.4382 77.304 31.0942 78.056 30.2462 79.56H30.1982V77.592H28.2782ZM44.4461 77.592V73.872H42.4061V77.592H40.2941V79.392H42.4061V87.288C42.4061 87.864 42.4621 88.328 42.5741 88.68C42.6861 89.032 42.8541 89.304 43.0781 89.496C43.3181 89.688 43.6221 89.824 43.9901 89.904C44.3741 89.968 44.8301 90 45.3581 90H46.9181V88.2H45.9821C45.6621 88.2 45.3981 88.192 45.1901 88.176C44.9981 88.144 44.8461 88.088 44.7341 88.008C44.6221 87.928 44.5421 87.816 44.4941 87.672C44.4621 87.528 44.4461 87.336 44.4461 87.096V79.392H46.9181V77.592H44.4461ZM60.1764 89.952C59.8244 90.16 59.3364 90.264 58.7124 90.264C58.1844 90.264 57.7604 90.12 57.4404 89.832C57.1364 89.528 56.9844 89.04 56.9844 88.368C56.4244 89.04 55.7684 89.528 55.0164 89.832C54.2804 90.12 53.4804 90.264 52.6164 90.264C52.0564 90.264 51.5204 90.2 51.0084 90.072C50.5124 89.944 50.0804 89.744 49.7124 89.472C49.3444 89.2 49.0484 88.848 48.8244 88.416C48.6164 87.968 48.5124 87.432 48.5124 86.808C48.5124 86.104 48.6324 85.528 48.8724 85.08C49.1124 84.632 49.4244 84.272 49.8084 84C50.2084 83.712 50.6564 83.496 51.1524 83.352C51.6644 83.208 52.1844 83.088 52.7124 82.992C53.2724 82.88 53.8004 82.8 54.2964 82.752C54.8084 82.688 55.2564 82.608 55.6404 82.512C56.0244 82.4 56.3284 82.248 56.5524 82.056C56.7764 81.848 56.8884 81.552 56.8884 81.168C56.8884 80.72 56.8004 80.36 56.6244 80.088C56.4644 79.816 56.2484 79.608 55.9764 79.464C55.7204 79.32 55.4244 79.224 55.0884 79.176C54.7684 79.128 54.4484 79.104 54.1284 79.104C53.2644 79.104 52.5444 79.272 51.9684 79.608C51.3924 79.928 51.0804 80.544 51.0324 81.456H48.9924C49.0244 80.688 49.1844 80.04 49.4724 79.512C49.7604 78.984 50.1444 78.56 50.6244 78.24C51.1044 77.904 51.6484 77.664 52.2564 77.52C52.8804 77.376 53.5444 77.304 54.2484 77.304C54.8084 77.304 55.3604 77.344 55.9044 77.424C56.4644 77.504 56.9684 77.672 57.4164 77.928C57.8644 78.168 58.2244 78.512 58.4964 78.96C58.7684 79.408 58.9044 79.992 58.9044 80.712V87.096C58.9044 87.576 58.9284 87.928 58.9764 88.152C59.0404 88.376 59.2324 88.488 59.5524 88.488C59.7284 88.488 59.9364 88.448 60.1764 88.368V89.952ZM56.8644 83.592C56.6084 83.784 56.2724 83.928 55.8564 84.024C55.4404 84.104 55.0004 84.176 54.5364 84.24C54.0884 84.288 53.6324 84.352 53.1684 84.432C52.7044 84.496 52.2884 84.608 51.9204 84.768C51.5524 84.928 51.2484 85.16 51.0084 85.464C50.7844 85.752 50.6724 86.152 50.6724 86.664C50.6724 87 50.7364 87.288 50.8644 87.528C51.0084 87.752 51.1844 87.936 51.3924 88.08C51.6164 88.224 51.8724 88.328 52.1604 88.392C52.4484 88.456 52.7524 88.488 53.0724 88.488C53.7444 88.488 54.3204 88.4 54.8004 88.224C55.2804 88.032 55.6724 87.8 55.9764 87.528C56.2804 87.24 56.5044 86.936 56.6484 86.616C56.7924 86.28 56.8644 85.968 56.8644 85.68V83.592ZM70.4991 81.576H72.6111C72.5311 80.84 72.3391 80.208 72.0351 79.68C71.7311 79.136 71.3391 78.688 70.8591 78.336C70.3951 77.984 69.8511 77.728 69.2271 77.568C68.6191 77.392 67.9631 77.304 67.2591 77.304C66.2831 77.304 65.4271 77.48 64.6911 77.832C63.9551 78.168 63.3391 78.64 62.8431 79.248C62.3631 79.84 62.0031 80.544 61.7631 81.36C61.5231 82.16 61.4031 83.024 61.4031 83.952C61.4031 84.88 61.5231 85.736 61.7631 86.52C62.0191 87.288 62.3871 87.952 62.8671 88.512C63.3631 89.072 63.9711 89.504 64.6911 89.808C65.4271 90.112 66.2671 90.264 67.2111 90.264C68.7951 90.264 70.0431 89.848 70.9551 89.016C71.8831 88.184 72.4591 87 72.6831 85.464H70.5951C70.4671 86.424 70.1151 87.168 69.5391 87.696C68.9791 88.224 68.1951 88.488 67.1871 88.488C66.5471 88.488 65.9951 88.36 65.5311 88.104C65.0671 87.848 64.6911 87.512 64.4031 87.096C64.1151 86.664 63.8991 86.176 63.7551 85.632C63.6271 85.088 63.5631 84.528 63.5631 83.952C63.5631 83.328 63.6271 82.728 63.7551 82.152C63.8831 81.56 64.0911 81.04 64.3791 80.592C64.6831 80.144 65.0831 79.784 65.5791 79.512C66.0751 79.24 66.6911 79.104 67.4271 79.104C68.2911 79.104 68.9791 79.32 69.4911 79.752C70.0031 80.184 70.3391 80.792 70.4991 81.576ZM77.7977 77.592V73.872H75.7577V77.592H73.6457V79.392H75.7577V87.288C75.7577 87.864 75.8137 88.328 75.9257 88.68C76.0377 89.032 76.2057 89.304 76.4297 89.496C76.6697 89.688 76.9737 89.824 77.3417 89.904C77.7257 89.968 78.1817 90 78.7097 90H80.2697V88.2H79.3337C79.0137 88.2 78.7497 88.192 78.5417 88.176C78.3497 88.144 78.1977 88.088 78.0857 88.008C77.9737 87.928 77.8937 87.816 77.8457 87.672C77.8137 87.528 77.7977 87.336 77.7977 87.096V79.392H80.2697V77.592H77.7977Z" fill="black"/>
<path d="M33.4219 57H80.9948V58.2H33.4219V57ZM0.0703125 93H80.9897V94.2H0.0703125V93Z" fill="black"/>
</svg>
