<svg id="visual" viewBox="0 0 960 540" width="960" height="540" xmlns="http://www.w3.org/2000/svg" xmlns:xlink="http://www.w3.org/1999/xlink" version="1.1"><path d="M0 131L87 131L87 77L175 77L175 179L262 179L262 152L349 152L349 141L436 141L436 114L524 114L524 168L611 168L611 212L698 212L698 206L785 206L785 125L873 125L873 136L960 136L960 233L960 0L960 0L873 0L873 0L785 0L785 0L698 0L698 0L611 0L611 0L524 0L524 0L436 0L436 0L349 0L349 0L262 0L262 0L175 0L175 0L87 0L87 0L0 0Z" fill="#d30c37"></path><path d="M0 228L87 228L87 152L175 152L175 239L262 239L262 212L349 212L349 260L436 260L436 217L524 217L524 244L611 244L611 249L698 249L698 244L785 244L785 185L873 185L873 244L960 244L960 293L960 231L960 134L873 134L873 123L785 123L785 204L698 204L698 210L611 210L611 166L524 166L524 112L436 112L436 139L349 139L349 150L262 150L262 177L175 177L175 75L87 75L87 129L0 129Z" fill="#d95559"></path><path d="M0 309L87 309L87 233L175 233L175 271L262 271L262 298L349 298L349 298L436 298L436 282L524 282L524 293L611 293L611 325L698 325L698 320L785 320L785 244L873 244L873 298L960 298L960 379L960 291L960 242L873 242L873 183L785 183L785 242L698 242L698 247L611 247L611 242L524 242L524 215L436 215L436 258L349 258L349 210L262 210L262 237L175 237L175 150L87 150L87 226L0 226Z" fill="#db807e"></path><path d="M0 438L87 438L87 363L175 363L175 384L262 384L262 406L349 406L349 395L436 395L436 384L524 384L524 374L611 374L611 417L698 417L698 471L785 471L785 298L873 298L873 341L960 341L960 465L960 377L960 296L873 296L873 242L785 242L785 318L698 318L698 323L611 323L611 291L524 291L524 280L436 280L436 296L349 296L349 296L262 296L262 269L175 269L175 231L87 231L87 307L0 307Z" fill="#d7a7a4"></path><path d="M0 541L87 541L87 541L175 541L175 541L262 541L262 541L349 541L349 541L436 541L436 541L524 541L524 541L611 541L611 541L698 541L698 541L785 541L785 541L873 541L873 541L960 541L960 541L960 463L960 339L873 339L873 296L785 296L785 469L698 469L698 415L611 415L611 372L524 372L524 382L436 382L436 393L349 393L349 404L262 404L262 382L175 382L175 361L87 361L87 436L0 436Z" fill="#cccccc"></path></svg>