<svg width="110" height="127" viewBox="0 0 110 127" fill="none" xmlns="http://www.w3.org/2000/svg">
<path d="M13.824 18L17.784 5.592H15.672L12.888 15.744H12.84L10.248 5.592H8.016L5.52 15.744H5.472L2.664 5.592H0.408L4.392 18H6.6L9.096 8.136H9.144L11.664 18H13.824ZM19.7235 0.863999V18H21.7635V10.992C21.7635 10.432 21.8355 9.92 21.9795 9.456C22.1395 8.976 22.3715 8.56 22.6755 8.208C22.9795 7.856 23.3555 7.584 23.8035 7.392C24.2675 7.2 24.8115 7.104 25.4355 7.104C26.2195 7.104 26.8355 7.328 27.2835 7.776C27.7315 8.224 27.9555 8.832 27.9555 9.6V18H29.9955V9.84C29.9955 9.168 29.9235 8.56 29.7795 8.016C29.6515 7.456 29.4195 6.976 29.0835 6.576C28.7475 6.176 28.3075 5.864 27.7635 5.64C27.2195 5.416 26.5395 5.304 25.7235 5.304C25.3555 5.304 24.9715 5.344 24.5715 5.424C24.1875 5.504 23.8115 5.632 23.4435 5.808C23.0915 5.968 22.7715 6.184 22.4835 6.456C22.1955 6.712 21.9715 7.032 21.8115 7.416H21.7635V0.863999H19.7235ZM34.5474 11.808C34.5474 11.056 34.6434 10.392 34.8354 9.816C35.0434 9.224 35.3234 8.728 35.6754 8.328C36.0274 7.928 36.4354 7.624 36.8994 7.416C37.3794 7.208 37.8834 7.104 38.4114 7.104C38.9394 7.104 39.4354 7.208 39.8994 7.416C40.3794 7.624 40.7954 7.928 41.1474 8.328C41.4994 8.728 41.7714 9.224 41.9634 9.816C42.1714 10.392 42.2754 11.056 42.2754 11.808C42.2754 12.56 42.1714 13.232 41.9634 13.824C41.7714 14.4 41.4994 14.888 41.1474 15.288C40.7954 15.672 40.3794 15.968 39.8994 16.176C39.4354 16.384 38.9394 16.488 38.4114 16.488C37.8834 16.488 37.3794 16.384 36.8994 16.176C36.4354 15.968 36.0274 15.672 35.6754 15.288C35.3234 14.888 35.0434 14.4 34.8354 13.824C34.6434 13.232 34.5474 12.56 34.5474 11.808ZM32.3874 11.808C32.3874 12.72 32.5154 13.568 32.7714 14.352C33.0274 15.136 33.4114 15.824 33.9234 16.416C34.4354 16.992 35.0674 17.448 35.8194 17.784C36.5714 18.104 37.4354 18.264 38.4114 18.264C39.4034 18.264 40.2674 18.104 41.0034 17.784C41.7554 17.448 42.3874 16.992 42.8994 16.416C43.4114 15.824 43.7954 15.136 44.0514 14.352C44.3074 13.568 44.4354 12.72 44.4354 11.808C44.4354 10.896 44.3074 10.048 44.0514 9.264C43.7954 8.464 43.4114 7.776 42.8994 7.2C42.3874 6.608 41.7554 6.144 41.0034 5.808C40.2674 5.472 39.4034 5.304 38.4114 5.304C37.4354 5.304 36.5714 5.472 35.8194 5.808C35.0674 6.144 34.4354 6.608 33.9234 7.2C33.4114 7.776 33.0274 8.464 32.7714 9.264C32.5154 10.048 32.3874 10.896 32.3874 11.808ZM50.5367 15.336V18H53.2007V15.336H50.5367ZM46.6247 6.216H48.6647C48.6647 5.656 48.7287 5.136 48.8567 4.656C48.9847 4.176 49.1847 3.76 49.4567 3.408C49.7447 3.056 50.0967 2.776 50.5127 2.568C50.9287 2.36 51.4247 2.256 52.0007 2.256C52.8647 2.256 53.5447 2.504 54.0407 3C54.5527 3.496 54.8407 4.184 54.9047 5.064C54.9367 5.656 54.8647 6.16 54.6887 6.576C54.5127 6.992 54.2727 7.376 53.9687 7.728C53.6807 8.064 53.3607 8.392 53.0087 8.712C52.6727 9.016 52.3447 9.352 52.0247 9.72C51.7207 10.088 51.4567 10.512 51.2327 10.992C51.0247 11.456 50.9047 12.024 50.8727 12.696V13.824H52.9127V12.888C52.9127 12.472 52.9687 12.104 53.0807 11.784C53.2087 11.448 53.3687 11.144 53.5607 10.872C53.7687 10.584 53.9927 10.32 54.2327 10.08C54.4887 9.824 54.7447 9.576 55.0007 9.336C55.2567 9.08 55.5047 8.816 55.7447 8.544C56.0007 8.272 56.2247 7.976 56.4167 7.656C56.6087 7.336 56.7607 6.984 56.8727 6.6C57.0007 6.2 57.0647 5.752 57.0647 5.256C57.0647 4.488 56.9367 3.808 56.6807 3.216C56.4407 2.624 56.0967 2.128 55.6487 1.728C55.2007 1.312 54.6647 0.999999 54.0407 0.792C53.4327 0.568 52.7527 0.456 52.0007 0.456C51.1687 0.456 50.4167 0.599999 49.7447 0.887999C49.0727 1.176 48.5047 1.584 48.0407 2.112C47.5767 2.624 47.2167 3.232 46.9607 3.936C46.7207 4.64 46.6087 5.4 46.6247 6.216ZM13.824 54L17.784 41.592H15.672L12.888 51.744H12.84L10.248 41.592H8.016L5.52 51.744H5.472L2.664 41.592H0.408L4.392 54H6.6L9.096 44.136H9.144L11.664 54H13.824ZM19.7235 36.864V54H21.7635V46.992C21.7635 46.432 21.8355 45.92 21.9795 45.456C22.1395 44.976 22.3715 44.56 22.6755 44.208C22.9795 43.856 23.3555 43.584 23.8035 43.392C24.2675 43.2 24.8115 43.104 25.4355 43.104C26.2195 43.104 26.8355 43.328 27.2835 43.776C27.7315 44.224 27.9555 44.832 27.9555 45.6V54H29.9955V45.84C29.9955 45.168 29.9235 44.56 29.7795 44.016C29.6515 43.456 29.4195 42.976 29.0835 42.576C28.7475 42.176 28.3075 41.864 27.7635 41.64C27.2195 41.416 26.5395 41.304 25.7235 41.304C25.3555 41.304 24.9715 41.344 24.5715 41.424C24.1875 41.504 23.8115 41.632 23.4435 41.808C23.0915 41.968 22.7715 42.184 22.4835 42.456C22.1955 42.712 21.9715 43.032 21.8115 43.416H21.7635V36.864H19.7235ZM44.0514 53.952C43.6994 54.16 43.2114 54.264 42.5874 54.264C42.0594 54.264 41.6354 54.12 41.3154 53.832C41.0114 53.528 40.8594 53.04 40.8594 52.368C40.2994 53.04 39.6434 53.528 38.8914 53.832C38.1554 54.12 37.3554 54.264 36.4914 54.264C35.9314 54.264 35.3954 54.2 34.8834 54.072C34.3874 53.944 33.9554 53.744 33.5874 53.472C33.2194 53.2 32.9234 52.848 32.6994 52.416C32.4914 51.968 32.3874 51.432 32.3874 50.808C32.3874 50.104 32.5074 49.528 32.7474 49.08C32.9874 48.632 33.2994 48.272 33.6834 48C34.0834 47.712 34.5314 47.496 35.0274 47.352C35.5394 47.208 36.0594 47.088 36.5874 46.992C37.1474 46.88 37.6754 46.8 38.1714 46.752C38.6834 46.688 39.1314 46.608 39.5154 46.512C39.8994 46.4 40.2034 46.248 40.4274 46.056C40.6514 45.848 40.7634 45.552 40.7634 45.168C40.7634 44.72 40.6754 44.36 40.4994 44.088C40.3394 43.816 40.1234 43.608 39.8514 43.464C39.5954 43.32 39.2994 43.224 38.9634 43.176C38.6434 43.128 38.3234 43.104 38.0034 43.104C37.1394 43.104 36.4194 43.272 35.8434 43.608C35.2674 43.928 34.9554 44.544 34.9074 45.456H32.8674C32.8994 44.688 33.0594 44.04 33.3474 43.512C33.6354 42.984 34.0194 42.56 34.4994 42.24C34.9794 41.904 35.5234 41.664 36.1314 41.52C36.7554 41.376 37.4194 41.304 38.1234 41.304C38.6834 41.304 39.2354 41.344 39.7794 41.424C40.3394 41.504 40.8434 41.672 41.2914 41.928C41.7394 42.168 42.0994 42.512 42.3714 42.96C42.6434 43.408 42.7794 43.992 42.7794 44.712V51.096C42.7794 51.576 42.8034 51.928 42.8514 52.152C42.9154 52.376 43.1074 52.488 43.4274 52.488C43.6034 52.488 43.8114 52.448 44.0514 52.368V53.952ZM40.7394 47.592C40.4834 47.784 40.1474 47.928 39.7314 48.024C39.3154 48.104 38.8754 48.176 38.4114 48.24C37.9634 48.288 37.5074 48.352 37.0434 48.432C36.5794 48.496 36.1634 48.608 35.7954 48.768C35.4274 48.928 35.1234 49.16 34.8834 49.464C34.6594 49.752 34.5474 50.152 34.5474 50.664C34.5474 51 34.6114 51.288 34.7394 51.528C34.8834 51.752 35.0594 51.936 35.2674 52.08C35.4914 52.224 35.7474 52.328 36.0354 52.392C36.3234 52.456 36.6274 52.488 36.9474 52.488C37.6194 52.488 38.1954 52.4 38.6754 52.224C39.1554 52.032 39.5474 51.8 39.8514 51.528C40.1554 51.24 40.3794 50.936 40.5234 50.616C40.6674 50.28 40.7394 49.968 40.7394 49.68V47.592ZM48.7821 41.592V37.872H46.7421V41.592H44.6301V43.392H46.7421V51.288C46.7421 51.864 46.7981 52.328 46.9101 52.68C47.0221 53.032 47.1901 53.304 47.4141 53.496C47.6541 53.688 47.9581 53.824 48.3261 53.904C48.7101 53.968 49.1661 54 49.6941 54H51.2541V52.2H50.3181C49.9981 52.2 49.7341 52.192 49.5261 52.176C49.3341 52.144 49.1821 52.088 49.0701 52.008C48.9581 51.928 48.8781 51.816 48.8301 51.672C48.7981 51.528 48.7821 51.336 48.7821 51.096V43.392H51.2541V41.592H48.7821ZM57.2164 51.336V54H59.8804V51.336H57.2164ZM53.3044 42.216H55.3444C55.3444 41.656 55.4084 41.136 55.5364 40.656C55.6644 40.176 55.8644 39.76 56.1364 39.408C56.4244 39.056 56.7764 38.776 57.1924 38.568C57.6084 38.36 58.1044 38.256 58.6804 38.256C59.5444 38.256 60.2244 38.504 60.7204 39C61.2324 39.496 61.5204 40.184 61.5844 41.064C61.6164 41.656 61.5444 42.16 61.3684 42.576C61.1924 42.992 60.9524 43.376 60.6484 43.728C60.3604 44.064 60.0404 44.392 59.6884 44.712C59.3524 45.016 59.0244 45.352 58.7044 45.72C58.4004 46.088 58.1364 46.512 57.9124 46.992C57.7044 47.456 57.5844 48.024 57.5524 48.696V49.824H59.5924V48.888C59.5924 48.472 59.6484 48.104 59.7604 47.784C59.8884 47.448 60.0484 47.144 60.2404 46.872C60.4484 46.584 60.6724 46.32 60.9124 46.08C61.1684 45.824 61.4244 45.576 61.6804 45.336C61.9364 45.08 62.1844 44.816 62.4244 44.544C62.6804 44.272 62.9044 43.976 63.0964 43.656C63.2884 43.336 63.4404 42.984 63.5524 42.6C63.6804 42.2 63.7444 41.752 63.7444 41.256C63.7444 40.488 63.6164 39.808 63.3604 39.216C63.1204 38.624 62.7764 38.128 62.3284 37.728C61.8804 37.312 61.3444 37 60.7204 36.792C60.1124 36.568 59.4324 36.456 58.6804 36.456C57.8484 36.456 57.0964 36.6 56.4244 36.888C55.7524 37.176 55.1844 37.584 54.7204 38.112C54.2564 38.624 53.8964 39.232 53.6404 39.936C53.4004 40.64 53.2884 41.4 53.3044 42.216ZM13.824 90L17.784 77.592H15.672L12.888 87.744H12.84L10.248 77.592H8.016L5.52 87.744H5.472L2.664 77.592H0.408L4.392 90H6.6L9.096 80.136H9.144L11.664 90H13.824ZM19.7235 72.864V90H21.7635V82.992C21.7635 82.432 21.8355 81.92 21.9795 81.456C22.1395 80.976 22.3715 80.56 22.6755 80.208C22.9795 79.856 23.3555 79.584 23.8035 79.392C24.2675 79.2 24.8115 79.104 25.4355 79.104C26.2195 79.104 26.8355 79.328 27.2835 79.776C27.7315 80.224 27.9555 80.832 27.9555 81.6V90H29.9955V81.84C29.9955 81.168 29.9235 80.56 29.7795 80.016C29.6515 79.456 29.4195 78.976 29.0835 78.576C28.7475 78.176 28.3075 77.864 27.7635 77.64C27.2195 77.416 26.5395 77.304 25.7235 77.304C25.3555 77.304 24.9715 77.344 24.5715 77.424C24.1875 77.504 23.8115 77.632 23.4435 77.808C23.0915 77.968 22.7715 78.184 22.4835 78.456C22.1955 78.712 21.9715 79.032 21.8115 79.416H21.7635V72.864H19.7235ZM41.6754 82.608H34.5474C34.5794 82.128 34.6834 81.68 34.8594 81.264C35.0354 80.832 35.2754 80.456 35.5794 80.136C35.8834 79.816 36.2434 79.568 36.6594 79.392C37.0914 79.2 37.5714 79.104 38.0994 79.104C38.6114 79.104 39.0754 79.2 39.4914 79.392C39.9234 79.568 40.2914 79.816 40.5954 80.136C40.9154 80.44 41.1634 80.808 41.3394 81.24C41.5314 81.672 41.6434 82.128 41.6754 82.608ZM43.6434 86.064H41.6274C41.4514 86.88 41.0834 87.488 40.5234 87.888C39.9794 88.288 39.2754 88.488 38.4114 88.488C37.7394 88.488 37.1554 88.376 36.6594 88.152C36.1634 87.928 35.7554 87.632 35.4354 87.264C35.1154 86.88 34.8834 86.448 34.7394 85.968C34.5954 85.472 34.5314 84.952 34.5474 84.408H43.8354C43.8674 83.656 43.7954 82.864 43.6194 82.032C43.4594 81.2 43.1554 80.432 42.7074 79.728C42.2754 79.024 41.6914 78.448 40.9554 78C40.2354 77.536 39.3234 77.304 38.2194 77.304C37.3714 77.304 36.5874 77.464 35.8674 77.784C35.1634 78.104 34.5474 78.552 34.0194 79.128C33.5074 79.704 33.1074 80.384 32.8194 81.168C32.5314 81.952 32.3874 82.816 32.3874 83.76C32.4194 84.704 32.5554 85.576 32.7954 86.376C33.0514 87.176 33.4274 87.864 33.9234 88.44C34.4194 89.016 35.0274 89.464 35.7474 89.784C36.4834 90.104 37.3474 90.264 38.3394 90.264C39.7474 90.264 40.9154 89.912 41.8434 89.208C42.7714 88.504 43.3714 87.456 43.6434 86.064ZM45.8781 77.592V90H47.9181V84.48C47.9181 83.68 47.9981 82.976 48.1581 82.368C48.3181 81.744 48.5741 81.216 48.9261 80.784C49.2781 80.352 49.7421 80.024 50.3181 79.8C50.8941 79.576 51.5901 79.464 52.4061 79.464V77.304C51.3021 77.272 50.3901 77.496 49.6701 77.976C48.9501 78.456 48.3421 79.2 47.8461 80.208H47.7981V77.592H45.8781ZM62.1364 82.608H55.0084C55.0404 82.128 55.1444 81.68 55.3204 81.264C55.4964 80.832 55.7364 80.456 56.0404 80.136C56.3444 79.816 56.7044 79.568 57.1204 79.392C57.5524 79.2 58.0324 79.104 58.5604 79.104C59.0724 79.104 59.5364 79.2 59.9524 79.392C60.3844 79.568 60.7524 79.816 61.0564 80.136C61.3764 80.44 61.6244 80.808 61.8004 81.24C61.9924 81.672 62.1044 82.128 62.1364 82.608ZM64.1044 86.064H62.0884C61.9124 86.88 61.5444 87.488 60.9844 87.888C60.4404 88.288 59.7364 88.488 58.8724 88.488C58.2004 88.488 57.6164 88.376 57.1204 88.152C56.6244 87.928 56.2164 87.632 55.8964 87.264C55.5764 86.88 55.3444 86.448 55.2004 85.968C55.0564 85.472 54.9924 84.952 55.0084 84.408H64.2964C64.3284 83.656 64.2564 82.864 64.0804 82.032C63.9204 81.2 63.6164 80.432 63.1684 79.728C62.7364 79.024 62.1524 78.448 61.4164 78C60.6964 77.536 59.7844 77.304 58.6804 77.304C57.8324 77.304 57.0484 77.464 56.3284 77.784C55.6244 78.104 55.0084 78.552 54.4804 79.128C53.9684 79.704 53.5684 80.384 53.2804 81.168C52.9924 81.952 52.8484 82.816 52.8484 83.76C52.8804 84.704 53.0164 85.576 53.2564 86.376C53.5124 87.176 53.8884 87.864 54.3844 88.44C54.8804 89.016 55.4884 89.464 56.2084 89.784C56.9444 90.104 57.8084 90.264 58.8004 90.264C60.2084 90.264 61.3764 89.912 62.3044 89.208C63.2324 88.504 63.8324 87.456 64.1044 86.064ZM70.107 87.336V90H72.771V87.336H70.107ZM66.195 78.216H68.235C68.235 77.656 68.299 77.136 68.427 76.656C68.555 76.176 68.755 75.76 69.027 75.408C69.315 75.056 69.667 74.776 70.083 74.568C70.499 74.36 70.995 74.256 71.571 74.256C72.435 74.256 73.115 74.504 73.611 75C74.123 75.496 74.411 76.184 74.475 77.064C74.507 77.656 74.435 78.16 74.259 78.576C74.083 78.992 73.843 79.376 73.539 79.728C73.251 80.064 72.931 80.392 72.579 80.712C72.243 81.016 71.915 81.352 71.595 81.72C71.291 82.088 71.027 82.512 70.803 82.992C70.595 83.456 70.475 84.024 70.443 84.696V85.824H72.483V84.888C72.483 84.472 72.539 84.104 72.651 83.784C72.779 83.448 72.939 83.144 73.131 82.872C73.339 82.584 73.563 82.32 73.803 82.08C74.059 81.824 74.315 81.576 74.571 81.336C74.827 81.08 75.075 80.816 75.315 80.544C75.571 80.272 75.795 79.976 75.987 79.656C76.179 79.336 76.331 78.984 76.443 78.6C76.571 78.2 76.635 77.752 76.635 77.256C76.635 76.488 76.507 75.808 76.251 75.216C76.011 74.624 75.667 74.128 75.219 73.728C74.771 73.312 74.235 73 73.611 72.792C73.003 72.568 72.323 72.456 71.571 72.456C70.739 72.456 69.987 72.6 69.315 72.888C68.643 73.176 68.075 73.584 67.611 74.112C67.147 74.624 66.787 75.232 66.531 75.936C66.291 76.64 66.179 77.4 66.195 78.216ZM13.824 126L17.784 113.592H15.672L12.888 123.744H12.84L10.248 113.592H8.016L5.52 123.744H5.472L2.664 113.592H0.408L4.392 126H6.6L9.096 116.136H9.144L11.664 126H13.824ZM19.7235 108.864V126H21.7635V118.992C21.7635 118.432 21.8355 117.92 21.9795 117.456C22.1395 116.976 22.3715 116.56 22.6755 116.208C22.9795 115.856 23.3555 115.584 23.8035 115.392C24.2675 115.2 24.8115 115.104 25.4355 115.104C26.2195 115.104 26.8355 115.328 27.2835 115.776C27.7315 116.224 27.9555 116.832 27.9555 117.6V126H29.9955V117.84C29.9955 117.168 29.9235 116.56 29.7795 116.016C29.6515 115.456 29.4195 114.976 29.0835 114.576C28.7475 114.176 28.3075 113.864 27.7635 113.64C27.2195 113.416 26.5395 113.304 25.7235 113.304C25.3555 113.304 24.9715 113.344 24.5715 113.424C24.1875 113.504 23.8115 113.632 23.4435 113.808C23.0915 113.968 22.7715 114.184 22.4835 114.456C22.1955 114.712 21.9715 115.032 21.8115 115.416H21.7635V108.864H19.7235ZM44.0514 125.952C43.6994 126.16 43.2114 126.264 42.5874 126.264C42.0594 126.264 41.6354 126.12 41.3154 125.832C41.0114 125.528 40.8594 125.04 40.8594 124.368C40.2994 125.04 39.6434 125.528 38.8914 125.832C38.1554 126.12 37.3554 126.264 36.4914 126.264C35.9314 126.264 35.3954 126.2 34.8834 126.072C34.3874 125.944 33.9554 125.744 33.5874 125.472C33.2194 125.2 32.9234 124.848 32.6994 124.416C32.4914 123.968 32.3874 123.432 32.3874 122.808C32.3874 122.104 32.5074 121.528 32.7474 121.08C32.9874 120.632 33.2994 120.272 33.6834 120C34.0834 119.712 34.5314 119.496 35.0274 119.352C35.5394 119.208 36.0594 119.088 36.5874 118.992C37.1474 118.88 37.6754 118.8 38.1714 118.752C38.6834 118.688 39.1314 118.608 39.5154 118.512C39.8994 118.4 40.2034 118.248 40.4274 118.056C40.6514 117.848 40.7634 117.552 40.7634 117.168C40.7634 116.72 40.6754 116.36 40.4994 116.088C40.3394 115.816 40.1234 115.608 39.8514 115.464C39.5954 115.32 39.2994 115.224 38.9634 115.176C38.6434 115.128 38.3234 115.104 38.0034 115.104C37.1394 115.104 36.4194 115.272 35.8434 115.608C35.2674 115.928 34.9554 116.544 34.9074 117.456H32.8674C32.8994 116.688 33.0594 116.04 33.3474 115.512C33.6354 114.984 34.0194 114.56 34.4994 114.24C34.9794 113.904 35.5234 113.664 36.1314 113.52C36.7554 113.376 37.4194 113.304 38.1234 113.304C38.6834 113.304 39.2354 113.344 39.7794 113.424C40.3394 113.504 40.8434 113.672 41.2914 113.928C41.7394 114.168 42.0994 114.512 42.3714 114.96C42.6434 115.408 42.7794 115.992 42.7794 116.712V123.096C42.7794 123.576 42.8034 123.928 42.8514 124.152C42.9154 124.376 43.1074 124.488 43.4274 124.488C43.6034 124.488 43.8114 124.448 44.0514 124.368V125.952ZM40.7394 119.592C40.4834 119.784 40.1474 119.928 39.7314 120.024C39.3154 120.104 38.8754 120.176 38.4114 120.24C37.9634 120.288 37.5074 120.352 37.0434 120.432C36.5794 120.496 36.1634 120.608 35.7954 120.768C35.4274 120.928 35.1234 121.16 34.8834 121.464C34.6594 121.752 34.5474 122.152 34.5474 122.664C34.5474 123 34.6114 123.288 34.7394 123.528C34.8834 123.752 35.0594 123.936 35.2674 124.08C35.4914 124.224 35.7474 124.328 36.0354 124.392C36.3234 124.456 36.6274 124.488 36.9474 124.488C37.6194 124.488 38.1954 124.4 38.6754 124.224C39.1554 124.032 39.5474 123.8 39.8514 123.528C40.1554 123.24 40.3794 122.936 40.5234 122.616C40.6674 122.28 40.7394 121.968 40.7394 121.68V119.592ZM48.7821 113.592V109.872H46.7421V113.592H44.6301V115.392H46.7421V123.288C46.7421 123.864 46.7981 124.328 46.9101 124.68C47.0221 125.032 47.1901 125.304 47.4141 125.496C47.6541 125.688 47.9581 125.824 48.3261 125.904C48.7101 125.968 49.1661 126 49.6941 126H51.2541V124.2H50.3181C49.9981 124.2 49.7341 124.192 49.5261 124.176C49.3341 124.144 49.1821 124.088 49.0701 124.008C48.9581 123.928 48.8781 123.816 48.8301 123.672C48.7981 123.528 48.7821 123.336 48.7821 123.096V115.392H51.2541V113.592H48.7821ZM62.1364 118.608H55.0084C55.0404 118.128 55.1444 117.68 55.3204 117.264C55.4964 116.832 55.7364 116.456 56.0404 116.136C56.3444 115.816 56.7044 115.568 57.1204 115.392C57.5524 115.2 58.0324 115.104 58.5604 115.104C59.0724 115.104 59.5364 115.2 59.9524 115.392C60.3844 115.568 60.7524 115.816 61.0564 116.136C61.3764 116.44 61.6244 116.808 61.8004 117.24C61.9924 117.672 62.1044 118.128 62.1364 118.608ZM64.1044 122.064H62.0884C61.9124 122.88 61.5444 123.488 60.9844 123.888C60.4404 124.288 59.7364 124.488 58.8724 124.488C58.2004 124.488 57.6164 124.376 57.1204 124.152C56.6244 123.928 56.2164 123.632 55.8964 123.264C55.5764 122.88 55.3444 122.448 55.2004 121.968C55.0564 121.472 54.9924 120.952 55.0084 120.408H64.2964C64.3284 119.656 64.2564 118.864 64.0804 118.032C63.9204 117.2 63.6164 116.432 63.1684 115.728C62.7364 115.024 62.1524 114.448 61.4164 114C60.6964 113.536 59.7844 113.304 58.6804 113.304C57.8324 113.304 57.0484 113.464 56.3284 113.784C55.6244 114.104 55.0084 114.552 54.4804 115.128C53.9684 115.704 53.5684 116.384 53.2804 117.168C52.9924 117.952 52.8484 118.816 52.8484 119.76C52.8804 120.704 53.0164 121.576 53.2564 122.376C53.5124 123.176 53.8884 123.864 54.3844 124.44C54.8804 125.016 55.4884 125.464 56.2084 125.784C56.9444 126.104 57.8084 126.264 58.8004 126.264C60.2084 126.264 61.3764 125.912 62.3044 125.208C63.2324 124.504 63.8324 123.456 64.1044 122.064ZM72.003 126L76.539 113.592H74.403L71.019 123.936H70.971L67.491 113.592H65.211L69.819 126H72.003ZM87.027 118.608H79.899C79.931 118.128 80.035 117.68 80.211 117.264C80.387 116.832 80.627 116.456 80.931 116.136C81.235 115.816 81.595 115.568 82.011 115.392C82.443 115.2 82.923 115.104 83.451 115.104C83.963 115.104 84.427 115.2 84.843 115.392C85.275 115.568 85.643 115.816 85.947 116.136C86.267 116.44 86.515 116.808 86.691 117.24C86.883 117.672 86.995 118.128 87.027 118.608ZM88.995 122.064H86.979C86.803 122.88 86.435 123.488 85.875 123.888C85.331 124.288 84.627 124.488 83.763 124.488C83.091 124.488 82.507 124.376 82.011 124.152C81.515 123.928 81.107 123.632 80.787 123.264C80.467 122.88 80.235 122.448 80.091 121.968C79.947 121.472 79.883 120.952 79.899 120.408H89.187C89.219 119.656 89.147 118.864 88.971 118.032C88.811 117.2 88.507 116.432 88.059 115.728C87.627 115.024 87.043 114.448 86.307 114C85.587 113.536 84.675 113.304 83.571 113.304C82.723 113.304 81.939 113.464 81.219 113.784C80.515 114.104 79.899 114.552 79.371 115.128C78.859 115.704 78.459 116.384 78.171 117.168C77.883 117.952 77.739 118.816 77.739 119.76C77.771 120.704 77.907 121.576 78.147 122.376C78.403 123.176 78.779 123.864 79.275 124.44C79.771 125.016 80.379 125.464 81.099 125.784C81.835 126.104 82.699 126.264 83.691 126.264C85.099 126.264 86.267 125.912 87.195 125.208C88.123 124.504 88.723 123.456 88.995 122.064ZM91.2296 113.592V126H93.2696V120.48C93.2696 119.68 93.3496 118.976 93.5096 118.368C93.6696 117.744 93.9256 117.216 94.2776 116.784C94.6296 116.352 95.0936 116.024 95.6696 115.8C96.2456 115.576 96.9416 115.464 97.7576 115.464V113.304C96.6536 113.272 95.7416 113.496 95.0216 113.976C94.3016 114.456 93.6936 115.2 93.1976 116.208H93.1496V113.592H91.2296ZM102.99 123.336V126H105.654V123.336H102.99ZM99.0778 114.216H101.118C101.118 113.656 101.182 113.136 101.31 112.656C101.438 112.176 101.638 111.76 101.91 111.408C102.198 111.056 102.55 110.776 102.966 110.568C103.382 110.36 103.878 110.256 104.454 110.256C105.318 110.256 105.998 110.504 106.494 111C107.006 111.496 107.294 112.184 107.358 113.064C107.39 113.656 107.318 114.16 107.142 114.576C106.966 114.992 106.726 115.376 106.422 115.728C106.134 116.064 105.814 116.392 105.462 116.712C105.126 117.016 104.798 117.352 104.478 117.72C104.174 118.088 103.91 118.512 103.686 118.992C103.478 119.456 103.358 120.024 103.326 120.696V121.824H105.366V120.888C105.366 120.472 105.422 120.104 105.534 119.784C105.662 119.448 105.822 119.144 106.014 118.872C106.222 118.584 106.446 118.32 106.686 118.08C106.942 117.824 107.198 117.576 107.454 117.336C107.71 117.08 107.958 116.816 108.198 116.544C108.454 116.272 108.678 115.976 108.87 115.656C109.062 115.336 109.214 114.984 109.326 114.6C109.454 114.2 109.518 113.752 109.518 113.256C109.518 112.488 109.39 111.808 109.134 111.216C108.894 110.624 108.55 110.128 108.102 109.728C107.654 109.312 107.118 109 106.494 108.792C105.886 108.568 105.206 108.456 104.454 108.456C103.622 108.456 102.87 108.6 102.198 108.888C101.526 109.176 100.958 109.584 100.494 110.112C100.03 110.624 99.6698 111.232 99.4138 111.936C99.1738 112.64 99.0618 113.4 99.0778 114.216Z" fill="#CFCFCF"/>
</svg>
