<svg width="103" height="91" viewBox="0 0 103 91" fill="none" xmlns="http://www.w3.org/2000/svg">
<path d="M13.824 18L17.784 5.592H15.672L12.888 15.744H12.84L10.248 5.592H8.016L5.52 15.744H5.472L2.664 5.592H0.408L4.392 18H6.6L9.096 8.136H9.144L11.664 18H13.824ZM19.7235 0.863999V18H21.7635V10.992C21.7635 10.432 21.8355 9.92 21.9795 9.456C22.1395 8.976 22.3715 8.56 22.6755 8.208C22.9795 7.856 23.3555 7.584 23.8035 7.392C24.2675 7.2 24.8115 7.104 25.4355 7.104C26.2195 7.104 26.8355 7.328 27.2835 7.776C27.7315 8.224 27.9555 8.832 27.9555 9.6V18H29.9955V9.84C29.9955 9.168 29.9235 8.56 29.7795 8.016C29.6515 7.456 29.4195 6.976 29.0835 6.576C28.7475 6.176 28.3075 5.864 27.7635 5.64C27.2195 5.416 26.5395 5.304 25.7235 5.304C25.3555 5.304 24.9715 5.344 24.5715 5.424C24.1875 5.504 23.8115 5.632 23.4435 5.808C23.0915 5.968 22.7715 6.184 22.4835 6.456C22.1955 6.712 21.9715 7.032 21.8115 7.416H21.7635V0.863999H19.7235ZM37.9314 19.656C37.6914 20.264 37.4514 20.776 37.2114 21.192C36.9874 21.608 36.7314 21.944 36.4434 22.2C36.1714 22.472 35.8594 22.664 35.5074 22.776C35.1714 22.904 34.7794 22.968 34.3314 22.968C34.0914 22.968 33.8514 22.952 33.6114 22.92C33.3714 22.888 33.1394 22.832 32.9154 22.752V20.88C33.0914 20.96 33.2914 21.024 33.5154 21.072C33.7554 21.136 33.9554 21.168 34.1154 21.168C34.5314 21.168 34.8754 21.064 35.1474 20.856C35.4354 20.664 35.6514 20.384 35.7954 20.016L36.6354 17.928L31.7154 5.592H34.0194L37.6434 15.744H37.6914L41.1714 5.592H43.3314L37.9314 19.656ZM48.7554 15.336V18H51.4194V15.336H48.7554ZM44.8434 6.216H46.8834C46.8834 5.656 46.9474 5.136 47.0754 4.656C47.2034 4.176 47.4034 3.76 47.6754 3.408C47.9634 3.056 48.3154 2.776 48.7314 2.568C49.1474 2.36 49.6434 2.256 50.2194 2.256C51.0834 2.256 51.7634 2.504 52.2594 3C52.7714 3.496 53.0594 4.184 53.1234 5.064C53.1554 5.656 53.0834 6.16 52.9074 6.576C52.7314 6.992 52.4914 7.376 52.1874 7.728C51.8994 8.064 51.5794 8.392 51.2274 8.712C50.8914 9.016 50.5634 9.352 50.2434 9.72C49.9394 10.088 49.6754 10.512 49.4514 10.992C49.2434 11.456 49.1234 12.024 49.0914 12.696V13.824H51.1314V12.888C51.1314 12.472 51.1874 12.104 51.2994 11.784C51.4274 11.448 51.5874 11.144 51.7794 10.872C51.9874 10.584 52.2114 10.32 52.4514 10.08C52.7074 9.824 52.9634 9.576 53.2194 9.336C53.4754 9.08 53.7234 8.816 53.9634 8.544C54.2194 8.272 54.4434 7.976 54.6354 7.656C54.8274 7.336 54.9794 6.984 55.0914 6.6C55.2194 6.2 55.2834 5.752 55.2834 5.256C55.2834 4.488 55.1554 3.808 54.8994 3.216C54.6594 2.624 54.3154 2.128 53.8674 1.728C53.4194 1.312 52.8834 0.999999 52.2594 0.792C51.6514 0.568 50.9714 0.456 50.2194 0.456C49.3874 0.456 48.6354 0.599999 47.9634 0.887999C47.2914 1.176 46.7234 1.584 46.2594 2.112C45.7954 2.624 45.4354 3.232 45.1794 3.936C44.9394 4.64 44.8274 5.4 44.8434 6.216ZM1.536 36.864V54H3.576V46.992C3.576 46.432 3.648 45.92 3.792 45.456C3.952 44.976 4.184 44.56 4.488 44.208C4.792 43.856 5.168 43.584 5.616 43.392C6.08 43.2 6.624 43.104 7.248 43.104C8.032 43.104 8.648 43.328 9.096 43.776C9.544 44.224 9.768 44.832 9.768 45.6V54H11.808V45.84C11.808 45.168 11.736 44.56 11.592 44.016C11.464 43.456 11.232 42.976 10.896 42.576C10.56 42.176 10.12 41.864 9.576 41.64C9.032 41.416 8.352 41.304 7.536 41.304C7.168 41.304 6.784 41.344 6.384 41.424C6 41.504 5.624 41.632 5.256 41.808C4.904 41.968 4.584 42.184 4.296 42.456C4.008 42.712 3.784 43.032 3.624 43.416H3.576V36.864H1.536ZM16.3599 47.808C16.3599 47.056 16.4559 46.392 16.6479 45.816C16.8559 45.224 17.1359 44.728 17.4879 44.328C17.8399 43.928 18.2479 43.624 18.7119 43.416C19.1919 43.208 19.6959 43.104 20.2239 43.104C20.7519 43.104 21.2479 43.208 21.7119 43.416C22.1919 43.624 22.6079 43.928 22.9599 44.328C23.3119 44.728 23.5839 45.224 23.7759 45.816C23.9839 46.392 24.0879 47.056 24.0879 47.808C24.0879 48.56 23.9839 49.232 23.7759 49.824C23.5839 50.4 23.3119 50.888 22.9599 51.288C22.6079 51.672 22.1919 51.968 21.7119 52.176C21.2479 52.384 20.7519 52.488 20.2239 52.488C19.6959 52.488 19.1919 52.384 18.7119 52.176C18.2479 51.968 17.8399 51.672 17.4879 51.288C17.1359 50.888 16.8559 50.4 16.6479 49.824C16.4559 49.232 16.3599 48.56 16.3599 47.808ZM14.1999 47.808C14.1999 48.72 14.3279 49.568 14.5839 50.352C14.8399 51.136 15.2239 51.824 15.7359 52.416C16.2479 52.992 16.8799 53.448 17.6319 53.784C18.3839 54.104 19.2479 54.264 20.2239 54.264C21.2159 54.264 22.0799 54.104 22.8159 53.784C23.5679 53.448 24.1999 52.992 24.7119 52.416C25.2239 51.824 25.6079 51.136 25.8639 50.352C26.1199 49.568 26.2479 48.72 26.2479 47.808C26.2479 46.896 26.1199 46.048 25.8639 45.264C25.6079 44.464 25.2239 43.776 24.7119 43.2C24.1999 42.608 23.5679 42.144 22.8159 41.808C22.0799 41.472 21.2159 41.304 20.2239 41.304C19.2479 41.304 18.3839 41.472 17.6319 41.808C16.8799 42.144 16.2479 42.608 15.7359 43.2C15.2239 43.776 14.8399 44.464 14.5839 45.264C14.3279 46.048 14.1999 46.896 14.1999 47.808ZM40.9412 54L44.9012 41.592H42.7892L40.0052 51.744H39.9572L37.3652 41.592H35.1332L32.6372 51.744H32.5892L29.7812 41.592H27.5252L31.5092 54H33.7172L36.2132 44.136H36.2612L38.7812 54H40.9412ZM50.5367 51.336V54H53.2007V51.336H50.5367ZM46.6247 42.216H48.6647C48.6647 41.656 48.7287 41.136 48.8567 40.656C48.9847 40.176 49.1847 39.76 49.4567 39.408C49.7447 39.056 50.0967 38.776 50.5127 38.568C50.9287 38.36 51.4247 38.256 52.0007 38.256C52.8647 38.256 53.5447 38.504 54.0407 39C54.5527 39.496 54.8407 40.184 54.9047 41.064C54.9367 41.656 54.8647 42.16 54.6887 42.576C54.5127 42.992 54.2727 43.376 53.9687 43.728C53.6807 44.064 53.3607 44.392 53.0087 44.712C52.6727 45.016 52.3447 45.352 52.0247 45.72C51.7207 46.088 51.4567 46.512 51.2327 46.992C51.0247 47.456 50.9047 48.024 50.8727 48.696V49.824H52.9127V48.888C52.9127 48.472 52.9687 48.104 53.0807 47.784C53.2087 47.448 53.3687 47.144 53.5607 46.872C53.7687 46.584 53.9927 46.32 54.2327 46.08C54.4887 45.824 54.7447 45.576 55.0007 45.336C55.2567 45.08 55.5047 44.816 55.7447 44.544C56.0007 44.272 56.2247 43.976 56.4167 43.656C56.6087 43.336 56.7607 42.984 56.8727 42.6C57.0007 42.2 57.0647 41.752 57.0647 41.256C57.0647 40.488 56.9367 39.808 56.6807 39.216C56.4407 38.624 56.0967 38.128 55.6487 37.728C55.2007 37.312 54.6647 37 54.0407 36.792C53.4327 36.568 52.7527 36.456 52.0007 36.456C51.1687 36.456 50.4167 36.6 49.7447 36.888C49.0727 37.176 48.5047 37.584 48.0407 38.112C47.5767 38.624 47.2167 39.232 46.9607 39.936C46.7207 40.64 46.6087 41.4 46.6247 42.216ZM1.536 72.864V90H3.576V82.992C3.576 82.432 3.648 81.92 3.792 81.456C3.952 80.976 4.184 80.56 4.488 80.208C4.792 79.856 5.168 79.584 5.616 79.392C6.08 79.2 6.624 79.104 7.248 79.104C8.032 79.104 8.648 79.328 9.096 79.776C9.544 80.224 9.768 80.832 9.768 81.6V90H11.808V81.84C11.808 81.168 11.736 80.56 11.592 80.016C11.464 79.456 11.232 78.976 10.896 78.576C10.56 78.176 10.12 77.864 9.576 77.64C9.032 77.416 8.352 77.304 7.536 77.304C7.168 77.304 6.784 77.344 6.384 77.424C6 77.504 5.624 77.632 5.256 77.808C4.904 77.968 4.584 78.184 4.296 78.456C4.008 78.712 3.784 79.032 3.624 79.416H3.576V72.864H1.536ZM16.3599 83.808C16.3599 83.056 16.4559 82.392 16.6479 81.816C16.8559 81.224 17.1359 80.728 17.4879 80.328C17.8399 79.928 18.2479 79.624 18.7119 79.416C19.1919 79.208 19.6959 79.104 20.2239 79.104C20.7519 79.104 21.2479 79.208 21.7119 79.416C22.1919 79.624 22.6079 79.928 22.9599 80.328C23.3119 80.728 23.5839 81.224 23.7759 81.816C23.9839 82.392 24.0879 83.056 24.0879 83.808C24.0879 84.56 23.9839 85.232 23.7759 85.824C23.5839 86.4 23.3119 86.888 22.9599 87.288C22.6079 87.672 22.1919 87.968 21.7119 88.176C21.2479 88.384 20.7519 88.488 20.2239 88.488C19.6959 88.488 19.1919 88.384 18.7119 88.176C18.2479 87.968 17.8399 87.672 17.4879 87.288C17.1359 86.888 16.8559 86.4 16.6479 85.824C16.4559 85.232 16.3599 84.56 16.3599 83.808ZM14.1999 83.808C14.1999 84.72 14.3279 85.568 14.5839 86.352C14.8399 87.136 15.2239 87.824 15.7359 88.416C16.2479 88.992 16.8799 89.448 17.6319 89.784C18.3839 90.104 19.2479 90.264 20.2239 90.264C21.2159 90.264 22.0799 90.104 22.8159 89.784C23.5679 89.448 24.1999 88.992 24.7119 88.416C25.2239 87.824 25.6079 87.136 25.8639 86.352C26.1199 85.568 26.2479 84.72 26.2479 83.808C26.2479 82.896 26.1199 82.048 25.8639 81.264C25.6079 80.464 25.2239 79.776 24.7119 79.2C24.1999 78.608 23.5679 78.144 22.8159 77.808C22.0799 77.472 21.2159 77.304 20.2239 77.304C19.2479 77.304 18.3839 77.472 17.6319 77.808C16.8799 78.144 16.2479 78.608 15.7359 79.2C15.2239 79.776 14.8399 80.464 14.5839 81.264C14.3279 82.048 14.1999 82.896 14.1999 83.808ZM40.9412 90L44.9012 77.592H42.7892L40.0052 87.744H39.9572L37.3652 77.592H35.1332L32.6372 87.744H32.5892L29.7812 77.592H27.5252L31.5092 90H33.7172L36.2132 80.136H36.2612L38.7812 90H40.9412ZM55.4567 82.608H48.3287C48.3607 82.128 48.4647 81.68 48.6407 81.264C48.8167 80.832 49.0567 80.456 49.3607 80.136C49.6647 79.816 50.0247 79.568 50.4407 79.392C50.8727 79.2 51.3527 79.104 51.8807 79.104C52.3927 79.104 52.8567 79.2 53.2727 79.392C53.7047 79.568 54.0727 79.816 54.3767 80.136C54.6967 80.44 54.9447 80.808 55.1207 81.24C55.3127 81.672 55.4247 82.128 55.4567 82.608ZM57.4247 86.064H55.4087C55.2327 86.88 54.8647 87.488 54.3047 87.888C53.7607 88.288 53.0567 88.488 52.1927 88.488C51.5207 88.488 50.9367 88.376 50.4407 88.152C49.9447 87.928 49.5367 87.632 49.2167 87.264C48.8967 86.88 48.6647 86.448 48.5207 85.968C48.3767 85.472 48.3127 84.952 48.3287 84.408H57.6167C57.6487 83.656 57.5767 82.864 57.4007 82.032C57.2407 81.2 56.9367 80.432 56.4887 79.728C56.0567 79.024 55.4727 78.448 54.7367 78C54.0167 77.536 53.1047 77.304 52.0007 77.304C51.1527 77.304 50.3687 77.464 49.6487 77.784C48.9447 78.104 48.3287 78.552 47.8007 79.128C47.2887 79.704 46.8887 80.384 46.6007 81.168C46.3127 81.952 46.1687 82.816 46.1687 83.76C46.2007 84.704 46.3367 85.576 46.5767 86.376C46.8327 87.176 47.2087 87.864 47.7047 88.44C48.2007 89.016 48.8087 89.464 49.5287 89.784C50.2647 90.104 51.1287 90.264 52.1207 90.264C53.5287 90.264 54.6967 89.912 55.6247 89.208C56.5527 88.504 57.1527 87.456 57.4247 86.064ZM65.3233 90L69.8593 77.592H67.7233L64.3393 87.936H64.2913L60.8113 77.592H58.5313L63.1393 90H65.3233ZM80.3473 82.608H73.2193C73.2513 82.128 73.3553 81.68 73.5313 81.264C73.7073 80.832 73.9473 80.456 74.2513 80.136C74.5553 79.816 74.9153 79.568 75.3313 79.392C75.7633 79.2 76.2433 79.104 76.7713 79.104C77.2833 79.104 77.7473 79.2 78.1633 79.392C78.5953 79.568 78.9633 79.816 79.2673 80.136C79.5873 80.44 79.8353 80.808 80.0113 81.24C80.2033 81.672 80.3153 82.128 80.3473 82.608ZM82.3153 86.064H80.2993C80.1233 86.88 79.7553 87.488 79.1953 87.888C78.6513 88.288 77.9473 88.488 77.0833 88.488C76.4113 88.488 75.8273 88.376 75.3313 88.152C74.8353 87.928 74.4273 87.632 74.1073 87.264C73.7873 86.88 73.5553 86.448 73.4113 85.968C73.2673 85.472 73.2033 84.952 73.2193 84.408H82.5073C82.5393 83.656 82.4673 82.864 82.2913 82.032C82.1313 81.2 81.8273 80.432 81.3793 79.728C80.9473 79.024 80.3633 78.448 79.6273 78C78.9073 77.536 77.9953 77.304 76.8913 77.304C76.0433 77.304 75.2593 77.464 74.5393 77.784C73.8353 78.104 73.2193 78.552 72.6913 79.128C72.1793 79.704 71.7793 80.384 71.4913 81.168C71.2033 81.952 71.0593 82.816 71.0593 83.76C71.0913 84.704 71.2273 85.576 71.4673 86.376C71.7233 87.176 72.0993 87.864 72.5953 88.44C73.0913 89.016 73.6993 89.464 74.4193 89.784C75.1553 90.104 76.0193 90.264 77.0113 90.264C78.4193 90.264 79.5873 89.912 80.5153 89.208C81.4433 88.504 82.0433 87.456 82.3153 86.064ZM84.5499 77.592V90H86.5899V84.48C86.5899 83.68 86.6699 82.976 86.8299 82.368C86.9899 81.744 87.2459 81.216 87.5979 80.784C87.9499 80.352 88.4139 80.024 88.9899 79.8C89.5659 79.576 90.2619 79.464 91.0779 79.464V77.304C89.9739 77.272 89.0619 77.496 88.3419 77.976C87.6219 78.456 87.0139 79.2 86.5179 80.208H86.4699V77.592H84.5499ZM96.3101 87.336V90H98.9741V87.336H96.3101ZM92.3981 78.216H94.4381C94.4381 77.656 94.5021 77.136 94.6301 76.656C94.7581 76.176 94.9581 75.76 95.2301 75.408C95.5181 75.056 95.8701 74.776 96.2861 74.568C96.7021 74.36 97.1981 74.256 97.7741 74.256C98.6381 74.256 99.3181 74.504 99.8141 75C100.326 75.496 100.614 76.184 100.678 77.064C100.71 77.656 100.638 78.16 100.462 78.576C100.286 78.992 100.046 79.376 99.7421 79.728C99.4541 80.064 99.1341 80.392 98.7821 80.712C98.4461 81.016 98.1181 81.352 97.7981 81.72C97.4941 82.088 97.2301 82.512 97.0061 82.992C96.7981 83.456 96.6781 84.024 96.6461 84.696V85.824H98.6861V84.888C98.6861 84.472 98.7421 84.104 98.8541 83.784C98.9821 83.448 99.1421 83.144 99.3341 82.872C99.5421 82.584 99.7661 82.32 100.006 82.08C100.262 81.824 100.518 81.576 100.774 81.336C101.03 81.08 101.278 80.816 101.518 80.544C101.774 80.272 101.998 79.976 102.19 79.656C102.382 79.336 102.534 78.984 102.646 78.6C102.774 78.2 102.838 77.752 102.838 77.256C102.838 76.488 102.71 75.808 102.454 75.216C102.214 74.624 101.87 74.128 101.422 73.728C100.974 73.312 100.438 73 99.8141 72.792C99.2061 72.568 98.5261 72.456 97.7741 72.456C96.9421 72.456 96.1901 72.6 95.5181 72.888C94.8461 73.176 94.2781 73.584 93.8141 74.112C93.3501 74.624 92.9901 75.232 92.7341 75.936C92.4941 76.64 92.3821 77.4 92.3981 78.216Z" fill="#CECECE"/>
</svg>
