<svg width="115" height="95" viewBox="0 0 115 95" fill="none" xmlns="http://www.w3.org/2000/svg">
<path d="M36.5679 9.504V5.808H32.7999V9.504H36.5679ZM32.7999 14.304V18H36.5679V14.304H32.7999ZM55.9916 18L60.5996 0.863999H56.9036L54.0956 12.672H54.0476L51.1196 0.863999H47.5916L44.6156 12.528H44.5676L41.8556 0.863999H38.0876L42.6236 18H46.4396L49.2956 6.336H49.3436L52.2476 18H55.9916ZM65.3597 9.504C65.3597 8.752 65.4397 8.024 65.5997 7.32C65.7757 6.616 66.0477 5.992 66.4157 5.448C66.7837 4.888 67.2637 4.448 67.8557 4.128C68.4477 3.792 69.1677 3.624 70.0157 3.624C70.8637 3.624 71.5837 3.792 72.1757 4.128C72.7677 4.448 73.2477 4.888 73.6157 5.448C73.9837 5.992 74.2477 6.616 74.4077 7.32C74.5837 8.024 74.6717 8.752 74.6717 9.504C74.6717 10.224 74.5837 10.928 74.4077 11.616C74.2477 12.288 73.9837 12.896 73.6157 13.44C73.2477 13.984 72.7677 14.424 72.1757 14.76C71.5837 15.08 70.8637 15.24 70.0157 15.24C69.1677 15.24 68.4477 15.08 67.8557 14.76C67.2637 14.424 66.7837 13.984 66.4157 13.44C66.0477 12.896 65.7757 12.288 65.5997 11.616C65.4397 10.928 65.3597 10.224 65.3597 9.504ZM61.5917 9.504C61.5917 10.752 61.7837 11.92 62.1677 13.008C62.5517 14.08 63.1037 15.016 63.8237 15.816C64.5437 16.616 65.4237 17.248 66.4637 17.712C67.5197 18.16 68.7037 18.384 70.0157 18.384C71.3437 18.384 72.5277 18.16 73.5677 17.712C74.6077 17.248 75.4877 16.616 76.2077 15.816C76.9277 15.016 77.4797 14.08 77.8637 13.008C78.2477 11.92 78.4397 10.752 78.4397 9.504C78.4397 8.224 78.2477 7.04 77.8637 5.952C77.4797 4.848 76.9277 3.888 76.2077 3.072C75.4877 2.256 74.6077 1.616 73.5677 1.152C72.5277 0.688 71.3437 0.456 70.0157 0.456C68.7037 0.456 67.5197 0.688 66.4637 1.152C65.4237 1.616 64.5437 2.256 63.8237 3.072C63.1037 3.888 62.5517 4.848 62.1677 5.952C61.7837 7.04 61.5917 8.224 61.5917 9.504ZM84.7834 8.616V3.792H88.9114C89.7754 3.792 90.4234 3.984 90.8554 4.368C91.2874 4.736 91.5034 5.336 91.5034 6.168C91.5034 7.032 91.2874 7.656 90.8554 8.04C90.4234 8.424 89.7754 8.616 88.9114 8.616H84.7834ZM81.0154 0.863999V18H84.7834V11.304H88.5514C89.4954 11.304 90.1754 11.512 90.5914 11.928C91.0074 12.344 91.2794 13 91.4074 13.896C91.5034 14.584 91.5754 15.304 91.6234 16.056C91.6714 16.808 91.7994 17.456 92.0074 18H95.7754C95.5994 17.76 95.4634 17.472 95.3674 17.136C95.2874 16.784 95.2234 16.416 95.1754 16.032C95.1434 15.648 95.1194 15.272 95.1034 14.904C95.0874 14.536 95.0714 14.216 95.0554 13.944C95.0234 13.512 94.9594 13.08 94.8634 12.648C94.7834 12.216 94.6474 11.824 94.4554 11.472C94.2634 11.104 94.0154 10.792 93.7114 10.536C93.4074 10.264 93.0234 10.064 92.5594 9.936V9.888C93.5194 9.504 94.2074 8.944 94.6234 8.208C95.0554 7.472 95.2714 6.6 95.2714 5.592C95.2714 4.936 95.1514 4.328 94.9114 3.768C94.6874 3.192 94.3514 2.688 93.9034 2.256C93.4714 1.824 92.9434 1.488 92.3194 1.248C91.7114 0.991999 91.0234 0.863999 90.2554 0.863999H81.0154ZM98.3357 0.863999V18H102.104V12.48L104.264 10.296L109.424 18H114.152L106.808 7.632L113.504 0.863999H108.8L102.104 7.968V0.863999H98.3357ZM32.0064 41.592V58.728H34.0464V52.344H34.0944C34.3184 52.712 34.5904 53.024 34.9104 53.28C35.2464 53.52 35.5984 53.712 35.9664 53.856C36.3344 54 36.7024 54.104 37.0704 54.168C37.4544 54.232 37.7984 54.264 38.1024 54.264C39.0464 54.264 39.8704 54.096 40.5744 53.76C41.2944 53.424 41.8864 52.968 42.3504 52.392C42.8304 51.8 43.1824 51.112 43.4064 50.328C43.6464 49.544 43.7664 48.712 43.7664 47.832C43.7664 46.952 43.6464 46.12 43.4064 45.336C43.1664 44.552 42.8064 43.864 42.3264 43.272C41.8624 42.664 41.2704 42.184 40.5504 41.832C39.8464 41.48 39.0144 41.304 38.0544 41.304C37.1904 41.304 36.3984 41.464 35.6784 41.784C34.9584 42.088 34.4304 42.584 34.0944 43.272H34.0464V41.592H32.0064ZM41.6064 47.688C41.6064 48.296 41.5424 48.888 41.4144 49.464C41.2864 50.04 41.0784 50.552 40.7904 51C40.5024 51.448 40.1184 51.808 39.6384 52.08C39.1744 52.352 38.5904 52.488 37.8864 52.488C37.1824 52.488 36.5824 52.36 36.0864 52.104C35.5904 51.832 35.1824 51.48 34.8624 51.048C34.5584 50.616 34.3344 50.12 34.1904 49.56C34.0464 48.984 33.9744 48.392 33.9744 47.784C33.9744 47.208 34.0384 46.64 34.1664 46.08C34.3104 45.52 34.5344 45.024 34.8384 44.592C35.1424 44.144 35.5344 43.784 36.0144 43.512C36.4944 43.24 37.0784 43.104 37.7664 43.104C38.4224 43.104 38.9904 43.232 39.4704 43.488C39.9664 43.744 40.3664 44.088 40.6704 44.52C40.9904 44.952 41.2224 45.448 41.3664 46.008C41.5264 46.552 41.6064 47.112 41.6064 47.688ZM46.089 41.592V54H48.129V48.48C48.129 47.68 48.209 46.976 48.369 46.368C48.529 45.744 48.785 45.216 49.137 44.784C49.489 44.352 49.953 44.024 50.529 43.8C51.105 43.576 51.801 43.464 52.617 43.464V41.304C51.513 41.272 50.601 41.496 49.881 41.976C49.161 42.456 48.553 43.2 48.057 44.208H48.009V41.592H46.089ZM55.2193 47.808C55.2193 47.056 55.3153 46.392 55.5073 45.816C55.7153 45.224 55.9953 44.728 56.3473 44.328C56.6993 43.928 57.1073 43.624 57.5713 43.416C58.0513 43.208 58.5553 43.104 59.0833 43.104C59.6113 43.104 60.1073 43.208 60.5713 43.416C61.0513 43.624 61.4673 43.928 61.8193 44.328C62.1713 44.728 62.4433 45.224 62.6353 45.816C62.8433 46.392 62.9473 47.056 62.9473 47.808C62.9473 48.56 62.8433 49.232 62.6353 49.824C62.4433 50.4 62.1713 50.888 61.8193 51.288C61.4673 51.672 61.0513 51.968 60.5713 52.176C60.1073 52.384 59.6113 52.488 59.0833 52.488C58.5553 52.488 58.0513 52.384 57.5713 52.176C57.1073 51.968 56.6993 51.672 56.3473 51.288C55.9953 50.888 55.7153 50.4 55.5073 49.824C55.3153 49.232 55.2193 48.56 55.2193 47.808ZM53.0593 47.808C53.0593 48.72 53.1873 49.568 53.4433 50.352C53.6993 51.136 54.0833 51.824 54.5953 52.416C55.1073 52.992 55.7393 53.448 56.4913 53.784C57.2433 54.104 58.1073 54.264 59.0833 54.264C60.0753 54.264 60.9393 54.104 61.6753 53.784C62.4273 53.448 63.0593 52.992 63.5713 52.416C64.0833 51.824 64.4673 51.136 64.7233 50.352C64.9793 49.568 65.1073 48.72 65.1073 47.808C65.1073 46.896 64.9793 46.048 64.7233 45.264C64.4673 44.464 64.0833 43.776 63.5713 43.2C63.0593 42.608 62.4273 42.144 61.6753 41.808C60.9393 41.472 60.0753 41.304 59.0833 41.304C58.1073 41.304 57.2433 41.472 56.4913 41.808C55.7393 42.144 55.1073 42.608 54.5953 43.2C54.0833 43.776 53.6993 44.464 53.4433 45.264C53.1873 46.048 53.0593 46.896 53.0593 47.808ZM69.0006 47.904C69.0006 47.296 69.0646 46.704 69.1926 46.128C69.3206 45.552 69.5286 45.04 69.8166 44.592C70.1046 44.144 70.4886 43.784 70.9686 43.512C71.4486 43.24 72.0326 43.104 72.7206 43.104C73.4246 43.104 74.0246 43.24 74.5206 43.512C75.0166 43.768 75.4166 44.112 75.7206 44.544C76.0406 44.976 76.2726 45.48 76.4166 46.056C76.5606 46.616 76.6326 47.2 76.6326 47.808C76.6326 48.384 76.5606 48.952 76.4166 49.512C76.2886 50.072 76.0726 50.576 75.7686 51.024C75.4646 51.456 75.0726 51.808 74.5926 52.08C74.1126 52.352 73.5286 52.488 72.8406 52.488C72.1846 52.488 71.6086 52.36 71.1126 52.104C70.6326 51.848 70.2326 51.504 69.9126 51.072C69.6086 50.64 69.3766 50.152 69.2166 49.608C69.0726 49.048 69.0006 48.48 69.0006 47.904ZM78.6006 54V36.864H76.5606V43.248H76.5126C76.2886 42.88 76.0086 42.576 75.6726 42.336C75.3526 42.08 75.0086 41.88 74.6406 41.736C74.2726 41.576 73.9046 41.464 73.5366 41.4C73.1686 41.336 72.8246 41.304 72.5046 41.304C71.5606 41.304 70.7286 41.48 70.0086 41.832C69.3046 42.168 68.7126 42.632 68.2326 43.224C67.7686 43.8 67.4166 44.48 67.1766 45.264C66.9526 46.048 66.8406 46.88 66.8406 47.76C66.8406 48.64 66.9606 49.472 67.2006 50.256C67.4406 51.04 67.7926 51.728 68.2566 52.32C68.7366 52.912 69.3286 53.384 70.0326 53.736C70.7526 54.088 71.5926 54.264 72.5526 54.264C73.4166 54.264 74.2086 54.112 74.9286 53.808C75.6486 53.504 76.1766 53.008 76.5126 52.32H76.5606V54H78.6006ZM92.0111 54V41.592H89.9711V48.6C89.9711 49.16 89.8911 49.68 89.7311 50.16C89.5871 50.624 89.3631 51.032 89.0591 51.384C88.7551 51.736 88.3711 52.008 87.9071 52.2C87.4591 52.392 86.9231 52.488 86.2991 52.488C85.5151 52.488 84.8991 52.264 84.4511 51.816C84.0031 51.368 83.7791 50.76 83.7791 49.992V41.592H81.7391V49.752C81.7391 50.424 81.8031 51.04 81.9311 51.6C82.0751 52.144 82.3151 52.616 82.6511 53.016C82.9871 53.416 83.4271 53.728 83.9711 53.952C84.5151 54.16 85.1951 54.264 86.0111 54.264C86.9231 54.264 87.7151 54.088 88.3871 53.736C89.0591 53.368 89.6111 52.8 90.0431 52.032H90.0911V54H92.0111ZM103.499 45.576H105.611C105.531 44.84 105.339 44.208 105.035 43.68C104.731 43.136 104.339 42.688 103.859 42.336C103.395 41.984 102.851 41.728 102.227 41.568C101.619 41.392 100.963 41.304 100.259 41.304C99.2831 41.304 98.4271 41.48 97.6911 41.832C96.9551 42.168 96.3391 42.64 95.8431 43.248C95.3631 43.84 95.0031 44.544 94.7631 45.36C94.5231 46.16 94.4031 47.024 94.4031 47.952C94.4031 48.88 94.5231 49.736 94.7631 50.52C95.0191 51.288 95.3871 51.952 95.8671 52.512C96.3631 53.072 96.9711 53.504 97.6911 53.808C98.4271 54.112 99.2671 54.264 100.211 54.264C101.795 54.264 103.043 53.848 103.955 53.016C104.883 52.184 105.459 51 105.683 49.464H103.595C103.467 50.424 103.115 51.168 102.539 51.696C101.979 52.224 101.195 52.488 100.187 52.488C99.5471 52.488 98.9951 52.36 98.5311 52.104C98.0671 51.848 97.6911 51.512 97.4031 51.096C97.1151 50.664 96.8991 50.176 96.7551 49.632C96.6271 49.088 96.5631 48.528 96.5631 47.952C96.5631 47.328 96.6271 46.728 96.7551 46.152C96.8831 45.56 97.0911 45.04 97.3791 44.592C97.6831 44.144 98.0831 43.784 98.5791 43.512C99.0751 43.24 99.6911 43.104 100.427 43.104C101.291 43.104 101.979 43.32 102.491 43.752C103.003 44.184 103.339 44.792 103.499 45.576ZM110.798 41.592V37.872H108.758V41.592H106.646V43.392H108.758V51.288C108.758 51.864 108.814 52.328 108.926 52.68C109.038 53.032 109.206 53.304 109.43 53.496C109.67 53.688 109.974 53.824 110.342 53.904C110.726 53.968 111.182 54 111.71 54H113.27V52.2H112.334C112.014 52.2 111.75 52.192 111.542 52.176C111.35 52.144 111.198 52.088 111.086 52.008C110.974 51.928 110.894 51.816 110.846 51.672C110.814 51.528 110.798 51.336 110.798 51.096V43.392H113.27V41.592H110.798ZM2.17894 72.864V90H4.45894V72.864H2.17894ZM7.95788 77.592V90H9.99788V82.992C9.99788 82.432 10.0699 81.92 10.2139 81.456C10.3739 80.976 10.6059 80.56 10.9099 80.208C11.2139 79.856 11.5899 79.584 12.0379 79.392C12.5019 79.2 13.0459 79.104 13.6699 79.104C14.4539 79.104 15.0699 79.328 15.5179 79.776C15.9659 80.224 16.1899 80.832 16.1899 81.6V90H18.2299V81.84C18.2299 81.168 18.1579 80.56 18.0139 80.016C17.8859 79.456 17.6539 78.976 17.3179 78.576C16.9819 78.176 16.5419 77.864 15.9979 77.64C15.4539 77.416 14.7739 77.304 13.9579 77.304C12.1179 77.304 10.7739 78.056 9.92588 79.56H9.87788V77.592H7.95788ZM24.1258 77.592V73.872H22.0858V77.592H19.9738V79.392H22.0858V87.288C22.0858 87.864 22.1418 88.328 22.2538 88.68C22.3658 89.032 22.5338 89.304 22.7578 89.496C22.9978 89.688 23.3018 89.824 23.6698 89.904C24.0538 89.968 24.5098 90 25.0378 90H26.5978V88.2H25.6618C25.3418 88.2 25.0778 88.192 24.8698 88.176C24.6778 88.144 24.5258 88.088 24.4138 88.008C24.3018 87.928 24.2218 87.816 24.1738 87.672C24.1418 87.528 24.1258 87.336 24.1258 87.096V79.392H26.5978V77.592H24.1258ZM37.4801 82.608H30.3521C30.3841 82.128 30.4881 81.68 30.6641 81.264C30.8401 80.832 31.0801 80.456 31.3841 80.136C31.6881 79.816 32.0481 79.568 32.4641 79.392C32.8961 79.2 33.3761 79.104 33.9041 79.104C34.4161 79.104 34.8801 79.2 35.2961 79.392C35.7281 79.568 36.0961 79.816 36.4001 80.136C36.7201 80.44 36.9681 80.808 37.1441 81.24C37.3361 81.672 37.4481 82.128 37.4801 82.608ZM39.4481 86.064H37.4321C37.2561 86.88 36.8881 87.488 36.3281 87.888C35.7841 88.288 35.0801 88.488 34.2161 88.488C33.5441 88.488 32.9601 88.376 32.4641 88.152C31.9681 87.928 31.5601 87.632 31.2401 87.264C30.9201 86.88 30.6881 86.448 30.5441 85.968C30.4001 85.472 30.3361 84.952 30.3521 84.408H39.6401C39.6721 83.656 39.6001 82.864 39.4241 82.032C39.2641 81.2 38.9601 80.432 38.5121 79.728C38.0801 79.024 37.4961 78.448 36.7601 78C36.0401 77.536 35.1281 77.304 34.0241 77.304C33.1761 77.304 32.3921 77.464 31.6721 77.784C30.9681 78.104 30.3521 78.552 29.8241 79.128C29.3121 79.704 28.9121 80.384 28.6241 81.168C28.3361 81.952 28.1921 82.816 28.1921 83.76C28.2241 84.704 28.3601 85.576 28.6001 86.376C28.8561 87.176 29.2321 87.864 29.7281 88.44C30.2241 89.016 30.8321 89.464 31.5521 89.784C32.2881 90.104 33.1521 90.264 34.1441 90.264C35.5521 90.264 36.7201 89.912 37.6481 89.208C38.5761 88.504 39.1761 87.456 39.4481 86.064ZM41.6828 77.592V90H43.7228V84.48C43.7228 83.68 43.8028 82.976 43.9628 82.368C44.1228 81.744 44.3788 81.216 44.7308 80.784C45.0828 80.352 45.5468 80.024 46.1228 79.8C46.6988 79.576 47.3948 79.464 48.2108 79.464V77.304C47.1068 77.272 46.1948 77.496 45.4748 77.976C44.7548 78.456 44.1468 79.2 43.6508 80.208H43.6028V77.592H41.6828ZM60.7389 89.952C60.3869 90.16 59.8989 90.264 59.2749 90.264C58.7469 90.264 58.3229 90.12 58.0029 89.832C57.6989 89.528 57.5469 89.04 57.5469 88.368C56.9869 89.04 56.3309 89.528 55.5789 89.832C54.8429 90.12 54.0429 90.264 53.1789 90.264C52.6189 90.264 52.0829 90.2 51.5709 90.072C51.0749 89.944 50.6429 89.744 50.2749 89.472C49.9069 89.2 49.6109 88.848 49.3869 88.416C49.1789 87.968 49.0749 87.432 49.0749 86.808C49.0749 86.104 49.1949 85.528 49.4349 85.08C49.6749 84.632 49.9869 84.272 50.3709 84C50.7709 83.712 51.2189 83.496 51.7149 83.352C52.2269 83.208 52.7469 83.088 53.2749 82.992C53.8349 82.88 54.3629 82.8 54.8589 82.752C55.3709 82.688 55.8189 82.608 56.2029 82.512C56.5869 82.4 56.8909 82.248 57.1149 82.056C57.3389 81.848 57.4509 81.552 57.4509 81.168C57.4509 80.72 57.3629 80.36 57.1869 80.088C57.0269 79.816 56.8109 79.608 56.5389 79.464C56.2829 79.32 55.9869 79.224 55.6509 79.176C55.3309 79.128 55.0109 79.104 54.6909 79.104C53.8269 79.104 53.1069 79.272 52.5309 79.608C51.9549 79.928 51.6429 80.544 51.5949 81.456H49.5549C49.5869 80.688 49.7469 80.04 50.0349 79.512C50.3229 78.984 50.7069 78.56 51.1869 78.24C51.6669 77.904 52.2109 77.664 52.8189 77.52C53.4429 77.376 54.1069 77.304 54.8109 77.304C55.3709 77.304 55.9229 77.344 56.4669 77.424C57.0269 77.504 57.5309 77.672 57.9789 77.928C58.4269 78.168 58.7869 78.512 59.0589 78.96C59.3309 79.408 59.4669 79.992 59.4669 80.712V87.096C59.4669 87.576 59.4909 87.928 59.5389 88.152C59.6029 88.376 59.7949 88.488 60.1149 88.488C60.2909 88.488 60.4989 88.448 60.7389 88.368V89.952ZM57.4269 83.592C57.1709 83.784 56.8349 83.928 56.4189 84.024C56.0029 84.104 55.5629 84.176 55.0989 84.24C54.6509 84.288 54.1949 84.352 53.7309 84.432C53.2669 84.496 52.8509 84.608 52.4829 84.768C52.1149 84.928 51.8109 85.16 51.5709 85.464C51.3469 85.752 51.2349 86.152 51.2349 86.664C51.2349 87 51.2989 87.288 51.4269 87.528C51.5709 87.752 51.7469 87.936 51.9549 88.08C52.1789 88.224 52.4349 88.328 52.7229 88.392C53.0109 88.456 53.3149 88.488 53.6349 88.488C54.3069 88.488 54.8829 88.4 55.3629 88.224C55.8429 88.032 56.2349 87.8 56.5389 87.528C56.8429 87.24 57.0669 86.936 57.2109 86.616C57.3549 86.28 57.4269 85.968 57.4269 85.68V83.592ZM71.0616 81.576H73.1736C73.0936 80.84 72.9016 80.208 72.5976 79.68C72.2936 79.136 71.9016 78.688 71.4216 78.336C70.9576 77.984 70.4136 77.728 69.7896 77.568C69.1816 77.392 68.5256 77.304 67.8216 77.304C66.8456 77.304 65.9896 77.48 65.2536 77.832C64.5176 78.168 63.9016 78.64 63.4056 79.248C62.9256 79.84 62.5656 80.544 62.3256 81.36C62.0856 82.16 61.9656 83.024 61.9656 83.952C61.9656 84.88 62.0856 85.736 62.3256 86.52C62.5816 87.288 62.9496 87.952 63.4296 88.512C63.9256 89.072 64.5336 89.504 65.2536 89.808C65.9896 90.112 66.8296 90.264 67.7736 90.264C69.3576 90.264 70.6056 89.848 71.5176 89.016C72.4456 88.184 73.0216 87 73.2456 85.464H71.1576C71.0296 86.424 70.6776 87.168 70.1016 87.696C69.5416 88.224 68.7576 88.488 67.7496 88.488C67.1096 88.488 66.5576 88.36 66.0936 88.104C65.6296 87.848 65.2536 87.512 64.9656 87.096C64.6776 86.664 64.4616 86.176 64.3176 85.632C64.1896 85.088 64.1256 84.528 64.1256 83.952C64.1256 83.328 64.1896 82.728 64.3176 82.152C64.4456 81.56 64.6536 81.04 64.9416 80.592C65.2456 80.144 65.6456 79.784 66.1416 79.512C66.6376 79.24 67.2536 79.104 67.9896 79.104C68.8536 79.104 69.5416 79.32 70.0536 79.752C70.5656 80.184 70.9016 80.792 71.0616 81.576ZM78.3602 77.592V73.872H76.3202V77.592H74.2082V79.392H76.3202V87.288C76.3202 87.864 76.3762 88.328 76.4882 88.68C76.6002 89.032 76.7682 89.304 76.9922 89.496C77.2322 89.688 77.5362 89.824 77.9042 89.904C78.2882 89.968 78.7442 90 79.2722 90H80.8322V88.2H79.8962C79.5762 88.2 79.3122 88.192 79.1042 88.176C78.9122 88.144 78.7602 88.088 78.6482 88.008C78.5362 87.928 78.4562 87.816 78.4082 87.672C78.3762 87.528 78.3602 87.336 78.3602 87.096V79.392H80.8322V77.592H78.3602ZM85.2585 75.36V72.864H83.2185V75.36H85.2585ZM83.2185 77.592V90H85.2585V77.592H83.2185ZM89.9068 83.808C89.9068 83.056 90.0028 82.392 90.1948 81.816C90.4028 81.224 90.6828 80.728 91.0348 80.328C91.3868 79.928 91.7948 79.624 92.2588 79.416C92.7388 79.208 93.2428 79.104 93.7708 79.104C94.2988 79.104 94.7948 79.208 95.2588 79.416C95.7388 79.624 96.1548 79.928 96.5068 80.328C96.8588 80.728 97.1308 81.224 97.3228 81.816C97.5308 82.392 97.6348 83.056 97.6348 83.808C97.6348 84.56 97.5308 85.232 97.3228 85.824C97.1308 86.4 96.8588 86.888 96.5068 87.288C96.1548 87.672 95.7388 87.968 95.2588 88.176C94.7948 88.384 94.2988 88.488 93.7708 88.488C93.2428 88.488 92.7388 88.384 92.2588 88.176C91.7948 87.968 91.3868 87.672 91.0348 87.288C90.6828 86.888 90.4028 86.4 90.1948 85.824C90.0028 85.232 89.9068 84.56 89.9068 83.808ZM87.7468 83.808C87.7468 84.72 87.8748 85.568 88.1308 86.352C88.3868 87.136 88.7708 87.824 89.2828 88.416C89.7948 88.992 90.4268 89.448 91.1788 89.784C91.9308 90.104 92.7948 90.264 93.7708 90.264C94.7628 90.264 95.6268 90.104 96.3628 89.784C97.1148 89.448 97.7468 88.992 98.2588 88.416C98.7708 87.824 99.1548 87.136 99.4108 86.352C99.6668 85.568 99.7948 84.72 99.7948 83.808C99.7948 82.896 99.6668 82.048 99.4108 81.264C99.1548 80.464 98.7708 79.776 98.2588 79.2C97.7468 78.608 97.1148 78.144 96.3628 77.808C95.6268 77.472 94.7628 77.304 93.7708 77.304C92.7948 77.304 91.9308 77.472 91.1788 77.808C90.4268 78.144 89.7948 78.608 89.2828 79.2C88.7708 79.776 88.3868 80.464 88.1308 81.264C87.8748 82.048 87.7468 82.896 87.7468 83.808ZM102.2 77.592V90H104.24V82.992C104.24 82.432 104.312 81.92 104.456 81.456C104.616 80.976 104.848 80.56 105.152 80.208C105.456 79.856 105.832 79.584 106.28 79.392C106.744 79.2 107.288 79.104 107.912 79.104C108.696 79.104 109.312 79.328 109.76 79.776C110.208 80.224 110.432 80.832 110.432 81.6V90H112.472V81.84C112.472 81.168 112.4 80.56 112.256 80.016C112.128 79.456 111.896 78.976 111.56 78.576C111.224 78.176 110.784 77.864 110.24 77.64C109.696 77.416 109.016 77.304 108.2 77.304C106.36 77.304 105.016 78.056 104.168 79.56H104.12V77.592H102.2Z" fill="black"/>
<path d="M30.3984 57H113.99V58.2H30.3984V57ZM0.210938 93H114.008V94.2H0.210938V93Z" fill="black"/>
</svg>
